<svg xmlns="http://www.w3.org/2000/svg" width="109.4" height="80.386" viewBox="0 0 109.4 80.386">
  <g id="Group_177601" data-name="Group 177601" transform="translate(-1143.168 -792.614)">
    <g id="Group_177600" data-name="Group 177600">
      <path id="Path_39688" data-name="Path 39688" d="M37.01,26.552C24.612,50.792,0,19.7,0,40.144a37.01,37.01,0,0,0,74.02,0C74.02,19.7,49.408,2.312,37.01,26.552Z" transform="translate(1165.187 797.264) rotate(-11)" fill="rgba(0,156,221,0.11)"/>
      <g id="_15" data-name="15" transform="translate(788.142 650.442)">
        <g id="Group_177587" data-name="Group 177587" transform="translate(363.5 142.172)">
          <g id="Group_177586" data-name="Group 177586">
            <g id="Group_177582" data-name="Group 177582" transform="translate(20.713 45.939)">
              <path id="Path_39825" data-name="Path 39825" d="M399.355,179.251l-6.86-.9-6.86.9-.474,2.687h14.668Z" transform="translate(-376.081 -178.349)" fill="#90aab2"/>
              <path id="Path_39826" data-name="Path 39826" d="M410.7,193.608l-.833-1.274c-.983-.646-6.6-2.768-6.6-2.768h-.028l-1.478-8.39H387.091l-1.479,8.39h-.028s-5.622,2.122-6.6,2.768l-.833,1.274c-.342.226.008.611.554.611H410.15C410.7,194.219,411.045,193.834,410.7,193.608Z" transform="translate(-378.01 -177.586)" fill="#97b6c4"/>
            </g>
            <g id="Group_177584" data-name="Group 177584">
              <g id="Group_177583" data-name="Group 177583">
                <path id="Rectangle_163131" data-name="Rectangle 163131" d="M2.852,0H71.4a2.853,2.853,0,0,1,2.853,2.853V44.235A2.852,2.852,0,0,1,71.4,47.088H2.852A2.852,2.852,0,0,1,0,44.236V2.852A2.852,2.852,0,0,1,2.852,0Z" fill="#97b6c4"/>
                <rect id="Rectangle_163132" data-name="Rectangle 163132" width="66.285" height="40.567" transform="translate(3.984 3.26)" fill="#849ba0"/>
                <rect id="Rectangle_163133" data-name="Rectangle 163133" width="61.938" height="37.426" transform="translate(6.158 5.071)" fill="#dee1e2"/>
              </g>
            </g>
            <g id="Group_177585" data-name="Group 177585" transform="translate(7.706 9.016)">
              <rect id="Rectangle_163134" data-name="Rectangle 163134" width="27.317" height="2.303" fill="#97b6c4"/>
              <rect id="Rectangle_163135" data-name="Rectangle 163135" width="27.317" height="2.302" transform="translate(0 4.606)" fill="#97b6c4"/>
              <rect id="Rectangle_163136" data-name="Rectangle 163136" width="27.317" height="2.302" transform="translate(0 9.211)" fill="#97b6c4"/>
              <rect id="Rectangle_163137" data-name="Rectangle 163137" width="27.317" height="2.302" transform="translate(0 13.816)" fill="#97b6c4"/>
              <rect id="Rectangle_163138" data-name="Rectangle 163138" width="27.317" height="2.302" transform="translate(0 18.421)" fill="#97b6c4"/>
              <rect id="Rectangle_163139" data-name="Rectangle 163139" width="27.317" height="2.302" transform="translate(0 23.026)" fill="#97b6c4"/>
              <rect id="Rectangle_163140" data-name="Rectangle 163140" width="27.317" height="2.303" transform="translate(0 27.631)" fill="#97b6c4"/>
              <rect id="Rectangle_163141" data-name="Rectangle 163141" width="27.317" height="2.303" transform="translate(29.481)" fill="#97b6c4"/>
              <rect id="Rectangle_163142" data-name="Rectangle 163142" width="27.317" height="2.302" transform="translate(29.481 4.606)" fill="#97b6c4"/>
              <rect id="Rectangle_163143" data-name="Rectangle 163143" width="27.317" height="2.302" transform="translate(29.481 9.211)" fill="#97b6c4"/>
              <rect id="Rectangle_163144" data-name="Rectangle 163144" width="27.317" height="2.302" transform="translate(29.481 13.816)" fill="#97b6c4"/>
              <rect id="Rectangle_163145" data-name="Rectangle 163145" width="27.317" height="2.302" transform="translate(29.481 18.421)" fill="#97b6c4"/>
              <rect id="Rectangle_163146" data-name="Rectangle 163146" width="27.317" height="2.302" transform="translate(29.481 23.026)" fill="#97b6c4"/>
              <rect id="Rectangle_163147" data-name="Rectangle 163147" width="27.317" height="2.303" transform="translate(29.481 27.631)" fill="#97b6c4"/>
            </g>
          </g>
        </g>
        <g id="Group_177591" data-name="Group 177591" transform="translate(398.206 152.19)">
          <g id="Group_177590" data-name="Group 177590">
            <g id="Group_177588" data-name="Group 177588" transform="translate(14.325)">
              <path id="Path_39827" data-name="Path 39827" d="M423.6,166.732c-.028-.443-.279-1.182-.847-.745-.258.2-.123.669-.362.833-.579.4-.651-.471-.7-.855-.175-1.459.458-2.871.258-4.3-.276-1.994-2.729-4.458-4.5-5.107a9.027,9.027,0,0,0-5.844.062,9.019,9.019,0,0,0-5.844.138c-1.745.707-3.03,3.237-3.238,5.241-.151,1.438.53,2.828.408,4.293-.033.382-.074,1.253-.668.88-.245-.157-.124-.635-.39-.823-1.021-.728-.74,1.383-.634,1.742.43,1.462.99,3.214,2.328,4.108.382.257,1.232.394,1.467.637.594.622,1.58,4.248,1.563,5.138l-.124,5.873,7,6.211,2.157-2.523,3.688-4.1c-.06-3.365-1.5-7.483,1.129-10.255C422.533,170.99,423.822,169.965,423.6,166.732Z" transform="translate(-400.089 -148.432)" fill="#f9cfb3"/>
              <path id="Path_39828" data-name="Path 39828" d="M401.459,166.631c.178.751.353,1.529.481,2.371.363,2.4,2.493,3.8,3.558,5.932.5,1,1.617,2.111,1.858,3.177,1.544-.568.618-.866,1.9.236.8.687,3.5.565,4.465.239.612-.208.844-.9,1.538-1.015s1.4.457,2.124.417c-.159.009,1.437-.333,1.153-.2,2.023-.922,3.6-4.5,4.269-6.437.451-1.3,1.29-2.356,1.741-3.631a19.3,19.3,0,0,0,.54-4.126c.717-6.055-.06-12.009-7.836-13.163-3.565-.53-7.7-.646-11.064.757-2.85,1.19-4.588,4.156-5.524,6.964S400.885,164.2,401.459,166.631Z" transform="translate(-400.31 -150.061)" fill="#494742"/>
            </g>
            <g id="Group_177589" data-name="Group 177589" transform="translate(0 33.212)">
              <path id="Path_39829" data-name="Path 39829" d="M418.374,176.215l-4.406.891a11.787,11.787,0,0,1-4.385.052l-4.076-.721-1.331,4.125,2.861,8.918,10.254-.178,2.555-9.007Z" transform="translate(-384.942 -176.215)" fill="#00a79d"/>
              <path id="Path_39830" data-name="Path 39830" d="M442.522,198.106a6.773,6.773,0,0,0,.423-6.866c-1.5-2.96-4-7.841-4.192-7.97s-7.29-2.145-11.839-3.44c-1.684-.477-3.026-.851-3.526-.993l-.218-.061L409,179.017l-.213.071c-.5.154-1.82.579-3.493,1.114-4.5,1.45-11.523,3.712-11.709,3.844s-2.514,5.091-3.912,8.1a6.782,6.782,0,0,0,.105,5.961Z" transform="translate(-389.029 -175.524)" fill="#00a79d"/>
            </g>
          </g>
        </g>
        <path id="Path_39831" data-name="Path 39831" d="M404.83,151.381a14.6,14.6,0,0,0-1.879-2.5c-.013.058-.033.114-.047.173.014-.058.034-.114.047-.173a14.532,14.532,0,0,0-24.366,14.625,14.58,14.58,0,0,0,.6,1.491l-5.816,3.455-.533-.9a1.547,1.547,0,0,0-1.666-.71,1.593,1.593,0,0,0-.452.171l-14.934,8.88a1.55,1.55,0,0,0-.537,2.117l2.5,4.207a1.546,1.546,0,0,0,2.116.538l14.934-8.879a1.527,1.527,0,0,0,.552-.579,1.544,1.544,0,0,0-.015-1.538l-.533-.9,5.815-3.459a14.537,14.537,0,0,0,24.218-16.027Zm-6.682,17.212a11.376,11.376,0,0,1-15.6-3.967c-.084-.141-.152-.29-.23-.433A11.366,11.366,0,0,1,401.787,152.5c.108.164.225.321.326.493A11.379,11.379,0,0,1,398.148,168.592Z" transform="translate(0 0.568)" fill="#1b6fc3"/>
        <g id="Group_177592" data-name="Group 177592" transform="translate(371.484 168.793)">
          <path id="Path_39832" data-name="Path 39832" d="M389.447,183.339a3.209,3.209,0,0,0-3.007-1.845,4.672,4.672,0,0,0-2.78,1.017l.364-2.808c.169-1.305-.427-2.417-1.329-2.417H369.346c-.9,0-1.5,1.111-1.331,2.417l2.419,18.661a1.276,1.276,0,0,0,1.218,1.1h8.735a1.276,1.276,0,0,0,1.218-1.1l.455-3.509.03.075a15.662,15.662,0,0,0,6.174-4.808C389.386,188.725,390.452,185.5,389.447,183.339Zm-2.465,5.756a14.66,14.66,0,0,1-4.685,3.937l1.059-8.178.036.036c1.154-1.151,2.189-1.764,3-1.754a1.543,1.543,0,0,1,1.561.9C388.612,185.445,387.83,188.038,386.982,189.1Z" transform="translate(-367.986 -159.317)" fill="#eb4747"/>
          <path id="Path_39833" data-name="Path 39833" d="M369.946,180.037l1.745,15.4h2.054l-1.437-15.4Z" transform="translate(-367.458 -158.575)" fill="#fff"/>
          <path id="Path_39834" data-name="Path 39834" d="M374.3,179.052s5.526-3.938,2.978-9.242c-2.516-5.237-1.54-6.674-1.54-6.674s-5.031,3.285-2.671,6.366S375.228,175.56,374.3,179.052Z" transform="translate(-366.784 -163.136)" fill="#fff"/>
        </g>
      </g>
    </g>
  </g>
</svg>
