<svg xmlns="http://www.w3.org/2000/svg" width="52.22" height="35.671" viewBox="0 0 52.22 35.671">
  <path id="leanpub-brands" d="M42.193,68.411l1.4,23.126-1.02-.026a17.294,17.294,0,0,0-9.536,2.6,17.956,17.956,0,0,0-9.536-2.6A28.648,28.648,0,0,0,12.03,94.087l2.907-23.993A22.994,22.994,0,0,1,23.5,68.411a12.556,12.556,0,0,1,9.536,3.952A12.459,12.459,0,0,1,42.193,68.411ZM59.15,99.671A15.271,15.271,0,0,1,52.6,98.218,23.937,23.937,0,0,0,42.576,95.9a13.136,13.136,0,0,0-9.536,3.774A13.136,13.136,0,0,0,23.5,95.9a23.937,23.937,0,0,0-10.021,2.32,15.562,15.562,0,0,1-6.425,1.453H6.93l3.952-32.433A25.561,25.561,0,0,1,23.172,64a17.273,17.273,0,0,1,9.868,2.7A17.273,17.273,0,0,1,42.907,64,25.561,25.561,0,0,1,55.2,67.238Zm-4.029-4.156L51.959,69.482a23.3,23.3,0,0,0-9.383-1.989,13.575,13.575,0,0,0-9.536,3.6,13.575,13.575,0,0,0-9.536-3.6,23.3,23.3,0,0,0-9.383,1.989L10.959,95.515C15.344,93.7,18.659,92.4,23.5,92.4a17.319,17.319,0,0,1,9.536,2.754A17.318,17.318,0,0,1,42.576,92.4c4.845,0,8.159,1.3,12.545,3.111Z" transform="translate(-6.93 -64)"/>
</svg>
