<svg id="call-2021585" xmlns="http://www.w3.org/2000/svg" width="23.547" height="24.229" viewBox="0 0 23.547 24.229">
  <path id="Path_38821" data-name="Path 38821" d="M38.646,18.783a.5.5,0,0,1-.5.5,1.042,1.042,0,0,0-1.04,1.04.5.5,0,1,1-1.01,0,2.051,2.051,0,0,1,2.049-2.049A.506.506,0,0,1,38.646,18.783Zm-8.218,2.049a.5.5,0,0,1-.5-.5,8.225,8.225,0,0,1,8.218-8.218.5.5,0,1,1,0,1.01,7.216,7.216,0,0,0-7.208,7.208A.506.506,0,0,1,30.429,20.832Z" transform="translate(-26.835 -9.026)" fill="#fff"/>
  <path id="Path_38822" data-name="Path 38822" d="M13.858,17.3a.5.5,0,0,1-1.01,0,5.138,5.138,0,0,1,5.134-5.134.5.5,0,0,1,0,1.01A4.129,4.129,0,0,0,13.858,17.3ZM17.982,6a.5.5,0,0,1,0,1.01A10.307,10.307,0,0,0,7.685,17.3a.5.5,0,0,1-1.01,0A11.316,11.316,0,0,1,17.982,6ZM13.051,22.622l.661.358a2.91,2.91,0,0,0,3.432-.5l5.33-5.33a2.916,2.916,0,0,0,.5-3.437l-.358-.656a3.888,3.888,0,0,1-.429-2.423,3.891,3.891,0,0,1,3.861-3.347,3.886,3.886,0,0,1,2.766,1.141l.257.262c1.363,1.363,1.519,3.71.444,6.618a24.524,24.524,0,0,1-5.744,8.47c-4.094,4.094-8.652,6.451-11.923,6.451a4.328,4.328,0,0,1-3.165-1.146l-.262-.262a3.907,3.907,0,0,1-1.146-2.766,3.91,3.91,0,0,1,5.775-3.432Z" transform="translate(-6.675 -6)" fill="#fff"/>
</svg>
