<svg id="call-2021585" xmlns="http://www.w3.org/2000/svg" width="24.482" height="25.191" viewBox="0 0 24.482 25.191">
  <path id="Path_38867" data-name="Path 38867" d="M29.924,19.048a.523.523,0,0,0,.525.525,1.083,1.083,0,0,1,1.081,1.081.525.525,0,1,0,1.05,0,2.132,2.132,0,0,0-2.131-2.131A.526.526,0,0,0,29.924,19.048Zm8.544,2.131a.523.523,0,0,0,.525-.525,8.552,8.552,0,0,0-8.544-8.544.525.525,0,0,0,0,1.05,7.5,7.5,0,0,1,7.494,7.494A.526.526,0,0,0,38.468,21.179Z" transform="translate(-17.723 -8.903)" fill="#fff"/>
  <path id="Path_38868" data-name="Path 38868" d="M23.689,17.751a.525.525,0,1,0,1.05,0A5.342,5.342,0,0,0,19.4,12.413a.525.525,0,0,0,0,1.05A4.293,4.293,0,0,1,23.689,17.751ZM19.4,6a.525.525,0,0,0,0,1.05,10.716,10.716,0,0,1,10.706,10.7.525.525,0,1,0,1.05,0A11.766,11.766,0,0,0,19.4,6Zm5.127,17.282-.688.373a3.025,3.025,0,0,1-3.569-.52l-5.542-5.542a3.032,3.032,0,0,1-.52-3.574l.373-.682a4.042,4.042,0,0,0,.446-2.519,4.046,4.046,0,0,0-4.015-3.48A4.041,4.041,0,0,0,8.139,8.524L7.871,8.8c-1.417,1.417-1.58,3.857-.462,6.88a25.5,25.5,0,0,0,5.972,8.806c4.256,4.256,9,6.707,12.4,6.707A4.5,4.5,0,0,0,29.069,30l.273-.273a4.062,4.062,0,0,0,1.191-2.876,4.065,4.065,0,0,0-6-3.569Z" transform="translate(-6.675 -6)" fill="#fff"/>
</svg>
