<svg id="google-pay-3628807" xmlns="http://www.w3.org/2000/svg" width="63.4" height="24.596" viewBox="0 0 63.4 24.596">
  <path id="Path_11604" data-name="Path 11604" d="M14.546,13.069a12.893,12.893,0,0,0-.187-2.207H4.121v4.18H9.984a5.016,5.016,0,0,1-2.168,3.3v2.715h3.5A10.605,10.605,0,0,0,14.546,13.069Z" transform="translate(6.734 -1.287)" fill="#4285f4"/>
  <path id="Path_11605" data-name="Path 11605" d="M10.137,21.173a10.38,10.38,0,0,0,7.2-2.621l-3.5-2.715a6.584,6.584,0,0,1-9.79-3.442H.439v2.8a10.854,10.854,0,0,0,9.7,5.981Z" transform="translate(0.719 1.218)" fill="#34a853"/>
  <path id="Path_11606" data-name="Path 11606" d="M4.763,16.707a6.525,6.525,0,0,1,0-4.156V9.756H1.157a10.845,10.845,0,0,0,0,9.75l3.606-2.8Z" transform="translate(0 -3.094)" fill="#fbbc04"/>
  <path id="Path_11607" data-name="Path 11607" d="M10.137,11.784A5.9,5.9,0,0,1,14.3,13.411l3.1-3.1a10.439,10.439,0,0,0-7.264-2.829,10.863,10.863,0,0,0-9.7,5.981l3.606,2.8a6.488,6.488,0,0,1,6.092-4.48Z" transform="translate(0.719 -6.805)" fill="#ea4335"/>
  <path id="Path_11608" data-name="Path 11608" d="M4.045,12.395h0l-3.606,2.8h0a10.858,10.858,0,0,0,9.7,5.981h0v-4.3h0a6.488,6.488,0,0,1-6.092-4.48Z" transform="translate(0.719 1.218)" fill="#2d9248"/>
  <path id="Path_11609" data-name="Path 11609" d="M1.157,9.756h0a10.845,10.845,0,0,0,0,9.75h0l3.606-2.8a6.525,6.525,0,0,1,0-4.156h0l-3.606-2.8Z" transform="translate(0 -3.094)" fill="#dba403"/>
  <path id="Path_11610" data-name="Path 11610" d="M10.137,7.485h0a10.863,10.863,0,0,0-9.7,5.981h0l3.606,2.8a6.49,6.49,0,0,1,6.092-4.48h0v-4.3Z" transform="translate(0.719 -6.804)" fill="#cc3a2e"/>
  <path id="Path_11611" data-name="Path 11611" d="M12.423,18.474v7.649H9.995V7.228h6.437A5.818,5.818,0,0,1,20.6,8.863a5.254,5.254,0,0,1,1.741,3.988A5.225,5.225,0,0,1,20.6,16.862a5.782,5.782,0,0,1-4.169,1.607l-4.009.005Zm0-8.921v6.6h4.069a3.29,3.29,0,0,0,2.465-5.534l-.063-.063a3.172,3.172,0,0,0-2.4-1H12.423Zm15.513,3.219a6.015,6.015,0,0,1,4.248,1.438,5.105,5.105,0,0,1,1.554,3.943v7.97H31.421v-1.8h-.105A4.636,4.636,0,0,1,27.3,26.541a5.21,5.21,0,0,1-3.574-1.267,4.04,4.04,0,0,1-1.435-3.166,3.84,3.84,0,0,1,1.517-3.192,6.4,6.4,0,0,1,4.051-1.185,7.171,7.171,0,0,1,3.561.79v-.556a2.764,2.764,0,0,0-1-2.149,3.452,3.452,0,0,0-2.344-.885,3.721,3.721,0,0,0-3.219,1.715L22.722,15.3a5.935,5.935,0,0,1,5.215-2.528Zm-3.142,9.392a1.946,1.946,0,0,0,.8,1.583,2.964,2.964,0,0,0,1.886.632,3.877,3.877,0,0,0,2.731-1.135,3.549,3.549,0,0,0,1.206-2.663,4.959,4.959,0,0,0-3.168-.906,4.1,4.1,0,0,0-2.468.714,2.145,2.145,0,0,0-.99,1.775Zm22.274-8.971-8.1,18.629h-2.5L39.467,25.3l-5.331-12.11h2.636l3.851,9.287h.053l3.748-9.287h2.644Z" transform="translate(16.331 -7.227)" fill="#5f6368"/>
  <path id="Path_11612" data-name="Path 11612" d="M12.423,12.395H9.995v5.281h2.428V12.395Zm21.318,0H31.416a3.573,3.573,0,0,1-1.2,2.4,3.877,3.877,0,0,1-2.731,1.135h-.058A2.977,2.977,0,0,1,25.6,15.3a1.939,1.939,0,0,1-.8-1.583,1.975,1.975,0,0,1,.5-1.325H22.469a4.454,4.454,0,0,0-.176,1.269,4.04,4.04,0,0,0,1.435,3.166A5.21,5.21,0,0,0,27.3,18.1a4.636,4.636,0,0,0,4.011-2.215h.105v1.8h2.32V12.395Zm10,0h-2.4l-.661,1.641h-.053l-.68-1.641H37.5l1.965,4.464-3.008,6.519h2.5l4.778-10.983Z" transform="translate(16.331 1.218)" fill="#53565b"/>
</svg>
