<svg xmlns="http://www.w3.org/2000/svg" width="21.627" height="16.56" viewBox="0 0 21.627 16.56">
  <path id="sign-in-alt-solid" d="M17.572,80.22H14.024a.508.508,0,0,1-.507-.507v-1.69a.508.508,0,0,1,.507-.507h3.548a1.35,1.35,0,0,0,1.352-1.352v-8.11A1.35,1.35,0,0,0,17.572,66.7H14.024a.508.508,0,0,1-.507-.507v-1.69A.508.508,0,0,1,14.024,64h3.548a4.056,4.056,0,0,1,4.055,4.055v8.11A4.056,4.056,0,0,1,17.572,80.22Zm-1.985-8.49-7.1-7.1a1.015,1.015,0,0,0-1.732.718v4.055H1.014A1.011,1.011,0,0,0,0,70.421v4.055a1.011,1.011,0,0,0,1.014,1.014H6.758v4.055a1.015,1.015,0,0,0,1.732.718l7.1-7.1A1.022,1.022,0,0,0,15.587,71.73Z" transform="translate(0 -64)" fill="#fff"/>
</svg>
