<svg xmlns="http://www.w3.org/2000/svg" xmlns:xlink="http://www.w3.org/1999/xlink" width="26" height="26" viewBox="0 0 26 26">
  <defs>
    <clipPath id="clip-path">
      <rect id="Rectangle_162856" data-name="Rectangle 162856" width="26" height="26" transform="translate(-0.476 0.197)" fill="#525863"/>
    </clipPath>
  </defs>
  <g id="SvgjsG1019" transform="translate(0.476 -0.197)">
    <g id="Group_176927" data-name="Group 176927" transform="translate(0 0)">
      <g id="Group_176926" data-name="Group 176926" clip-path="url(#clip-path)">
        <path id="Path_38869" data-name="Path 38869" d="M4.475,21.882H8.4a1.36,1.36,0,0,1,.837.346l4.5,4.5c.574.574,1.04.381,1.04-.431V7.667c0-.811-.466-1-1.04-.43l-4.5,4.5a1.357,1.357,0,0,1-.837.346H4.475A1.471,1.471,0,0,0,3,13.549v6.862A1.471,1.471,0,0,0,4.475,21.882Z" transform="translate(-1.536 -4.323)" fill="#525863"/>
        <path id="Path_38870" data-name="Path 38870" d="M44.309,14.045h0a10.5,10.5,0,0,0-2-6.171A10.8,10.8,0,0,0,37.182,4.04l-.465-.165a.49.49,0,0,1-.3-.626l.328-.924a.49.49,0,0,1,.626-.3l.46.164a12.753,12.753,0,0,1,6.058,4.529,12.471,12.471,0,0,1,2.377,7.323h0a12.467,12.467,0,0,1-2.377,7.318A12.762,12.762,0,0,1,37.834,25.9l-.46.164a.49.49,0,0,1-.626-.3l-.328-.924a.49.49,0,0,1,.3-.626l.465-.165A10.8,10.8,0,0,0,42.3,20.216,10.5,10.5,0,0,0,44.309,14.045Zm1.961,0Zm0,0" transform="translate(-21.519 -1.387)" fill="#525863" fill-rule="evenodd"/>
        <path id="Path_38871" data-name="Path 38871" d="M37.022,16.463l-.44-.221a.491.491,0,0,1-.218-.658l.442-.879a.489.489,0,0,1,.658-.217l.435.22a8.378,8.378,0,0,1,3.171,2.779,7.107,7.107,0,0,1,0,7.994A8.382,8.382,0,0,1,37.9,28.262l-.435.22a.489.489,0,0,1-.658-.216l-.441-.874a.49.49,0,0,1,.217-.658l.44-.221a6.461,6.461,0,0,0,2.426-2.127,5.149,5.149,0,0,0,0-5.793A6.42,6.42,0,0,0,37.022,16.463Z" transform="translate(-21.472 -8.83)" fill="#525863"/>
      </g>
    </g>
  </g>
</svg>
