<svg id="SvgjsG1014" xmlns="http://www.w3.org/2000/svg" width="17.715" height="24.157" viewBox="0 0 17.715 24.157">
  <g id="Group_176929" data-name="Group 176929" transform="translate(0 0)">
    <path id="Path_38872" data-name="Path 38872" d="M21.91,15a.805.805,0,0,0-.805.805,7.247,7.247,0,0,1-14.494,0,.805.805,0,1,0-1.61,0,8.858,8.858,0,0,0,8.052,8.858v2.416a.805.805,0,0,0,1.61,0V24.663a8.858,8.858,0,0,0,8.052-8.858A.805.805,0,0,0,21.91,15Z" transform="translate(-5 -3.727)" fill="#525863"/>
    <path id="Path_38873" data-name="Path 38873" d="M14.831,17.1a4.831,4.831,0,0,0,4.831-4.831V5.831a4.831,4.831,0,0,0-9.663,0v6.442A4.831,4.831,0,0,0,14.831,17.1Z" transform="translate(-5.974 -1)" fill="#525863"/>
  </g>
</svg>
