<svg xmlns="http://www.w3.org/2000/svg" width="57.32" height="33.69" viewBox="0 0 57.32 33.69">
  <g id="Group_173347" data-name="Group 173347" transform="translate(0 0)">
    <path id="Path_11599" data-name="Path 11599" d="M17.167,177.749a15.482,15.482,0,0,1-4.2,5.813c-2.782,2.186-3.974-.6-6.557-.6-1.79,0-2.912,1.335-4.357,1.428a28.768,28.768,0,0,1-.128-21c2.016.194,2.625,1.226,4.485,1.226,2.053,0,2.583-1.259,5.166-1.259a7.192,7.192,0,0,1,5.2,2.839,6.239,6.239,0,0,0,.386,11.551Z" transform="translate(-0.003 -157.168)" fill="#353535"/>
    <path id="Path_11600" data-name="Path 11600" d="M49.349,114.019c0,.167.009.331.022.494a5.96,5.96,0,0,0,5.761-5.956c0-.167-.009-.331-.022-.494A5.96,5.96,0,0,0,49.349,114.019Z" transform="translate(-43.824 -108.063)" fill="#353535"/>
    <path id="Path_11601" data-name="Path 11601" d="M184.1,164.842a1.063,1.063,0,0,1,1.177-.976h5.6c3.531,0,6.287,1.694,6.287,6.315v.23c0,4.593-2.842,6.344-6.459,6.344h-3.56v7.09c0,.66-.746,1-1.521,1-.746,0-1.521-.345-1.521-1v-19Zm3.043,1.722v7.779h3.56c2.124,0,3.416-1.206,3.416-3.732v-.344c0-2.526-1.292-3.7-3.416-3.7Z" transform="translate(-163.487 -157.619)" fill="#353535"/>
    <path id="Path_11602" data-name="Path 11602" d="M310.2,233.793V241c0,.545-.631,1-1.464,1-.775,0-1.378-.459-1.378-1v-1a5.626,5.626,0,0,1-4.335,2.239,3.53,3.53,0,0,1-3.818-3.789c0-3.244,2.727-4.105,6.717-4.105h1.263v-.517a2.8,2.8,0,0,0-2.842-3.1c-2.1,0-2.612.861-3.186.861-.718,0-1.091-.832-1.091-1.521,0-1.033,2.383-1.837,4.335-1.837C308.621,228.224,310.2,230.922,310.2,233.793ZM307.185,236h-.718c-2.181,0-4.22.23-4.22,2.067a1.7,1.7,0,0,0,1.866,1.866,3.337,3.337,0,0,0,3.072-2.871V236Z" transform="translate(-265.708 -214.771)" fill="#353535"/>
    <path id="Path_11603" data-name="Path 11603" d="M400.578,229.805a.607.607,0,0,1-.115-.4c0-.775,1.177-1.435,1.981-1.435a.925.925,0,0,1,.919.545l3.617,9.33,3.1-9.33a.925.925,0,0,1,.861-.545c.718,0,2.01.632,2.01,1.493a.674.674,0,0,1-.057.344l-4.248,11.224c-1.292,3.387-2.7,7.205-6.775,7.205-.775,0-1.407-.2-1.407-1.292,0-.689.23-1.292.832-1.292,1.464,0,3.7-1.464,4.105-4.708Z" transform="translate(-355.63 -214.544)" fill="#353535"/>
  </g>
</svg>
