<svg xmlns="http://www.w3.org/2000/svg" width="198.486" height="202.037" viewBox="0 0 198.486 202.037">
  <g id="Group_177270" data-name="Group 177270" transform="translate(-2223.193 -158.195)">
    <g id="Group_177247" data-name="Group 177247" transform="translate(2321.854 244.498)">
      <path id="Path_39288" data-name="Path 39288" d="M3050.1,937.409l25.353,10.182,31.383-78.145-21.43-8.607a4.227,4.227,0,0,0-5.5,2.347Z" transform="translate(-3047.112 -860.505)" fill="#f4a640"/>
      <g id="Group_177245" data-name="Group 177245" transform="translate(0 5.743)">
        <rect id="Rectangle_162943" data-name="Rectangle 162943" width="49.301" height="69.317" transform="translate(48.544 76.859) rotate(-169.947)" fill="#adcfd8"/>
        <rect id="Rectangle_162944" data-name="Rectangle 162944" width="22.016" height="0.494" transform="translate(45.953 13.49) rotate(-169.947)" fill="#55769f"/>
        <rect id="Rectangle_162945" data-name="Rectangle 162945" width="31.266" height="0.494" transform="translate(50.725 13.063) rotate(-169.947)" fill="#55769f"/>
        <rect id="Rectangle_162946" data-name="Rectangle 162946" width="37.933" height="0.494" transform="translate(52.883 19.989) rotate(-169.947)" fill="#55769f"/>
        <rect id="Rectangle_162947" data-name="Rectangle 162947" width="37.933" height="0.494" transform="translate(52.468 22.33) rotate(-169.947)" fill="#55769f"/>
        <rect id="Rectangle_162948" data-name="Rectangle 162948" width="37.933" height="0.494" transform="translate(51.638 27.012) rotate(-169.947)" fill="#55769f"/>
        <rect id="Rectangle_162949" data-name="Rectangle 162949" width="37.932" height="0.494" transform="translate(51.223 29.352) rotate(-169.947)" fill="#55769f"/>
        <rect id="Rectangle_162950" data-name="Rectangle 162950" width="37.933" height="0.494" transform="translate(50.808 31.693) rotate(-169.947)" fill="#55769f"/>
        <rect id="Rectangle_162951" data-name="Rectangle 162951" width="37.933" height="0.494" transform="translate(48.983 41.989) rotate(-169.947)" fill="#55769f"/>
        <rect id="Rectangle_162952" data-name="Rectangle 162952" width="37.932" height="0.494" transform="matrix(-0.985, -0.175, 0.175, -0.985, 48.553, 44.416)" fill="#55769f"/>
        <rect id="Rectangle_162953" data-name="Rectangle 162953" width="37.933" height="0.494" transform="translate(48.122 46.843) rotate(-169.947)" fill="#55769f"/>
        <rect id="Rectangle_162954" data-name="Rectangle 162954" width="37.933" height="0.494" transform="translate(47.692 49.27) rotate(-169.947)" fill="#55769f"/>
        <rect id="Rectangle_162955" data-name="Rectangle 162955" width="37.932" height="0.494" transform="translate(47.262 51.697) rotate(-169.947)" fill="#55769f"/>
        <rect id="Rectangle_162956" data-name="Rectangle 162956" width="37.932" height="0.494" transform="translate(46.832 54.125) rotate(-169.947)" fill="#55769f"/>
        <rect id="Rectangle_162957" data-name="Rectangle 162957" width="37.933" height="0.494" transform="translate(46.401 56.552) rotate(-169.947)" fill="#55769f"/>
      </g>
      <g id="Group_177246" data-name="Group 177246" transform="translate(1.454 4.039)">
        <rect id="Rectangle_162958" data-name="Rectangle 162958" width="49.301" height="69.317" transform="matrix(-0.967, -0.255, 0.255, -0.967, 47.677, 79.582)" fill="#daeef7"/>
        <rect id="Rectangle_162959" data-name="Rectangle 162959" width="22.016" height="0.494" transform="matrix(-0.967, -0.255, 0.255, -0.967, 50.278, 16.214)" fill="#55769f"/>
        <rect id="Rectangle_162960" data-name="Rectangle 162960" width="31.266" height="0.494" transform="translate(55.069 16.179) rotate(-165.256)" fill="#55769f"/>
        <rect id="Rectangle_162961" data-name="Rectangle 162961" width="37.933" height="0.494" transform="matrix(-0.967, -0.255, 0.255, -0.967, 56.653, 23.258)" fill="#55769f"/>
        <rect id="Rectangle_162962" data-name="Rectangle 162962" width="37.933" height="0.494" transform="translate(56.048 25.557) rotate(-165.256)" fill="#55769f"/>
        <rect id="Rectangle_162963" data-name="Rectangle 162963" width="37.933" height="0.494" transform="translate(54.838 30.155) rotate(-165.256)" fill="#55769f"/>
        <rect id="Rectangle_162964" data-name="Rectangle 162964" width="37.932" height="0.494" transform="translate(54.233 32.454) rotate(-165.256)" fill="#55769f"/>
        <rect id="Rectangle_162965" data-name="Rectangle 162965" width="37.933" height="0.494" transform="translate(53.628 34.753) rotate(-165.256)" fill="#55769f"/>
        <rect id="Rectangle_162966" data-name="Rectangle 162966" width="37.933" height="0.494" transform="translate(50.967 44.865) rotate(-165.256)" fill="#55769f"/>
        <rect id="Rectangle_162967" data-name="Rectangle 162967" width="37.933" height="0.494" transform="matrix(-0.967, -0.255, 0.255, -0.967, 50.34, 47.248)" fill="#55769f"/>
        <rect id="Rectangle_162968" data-name="Rectangle 162968" width="37.933" height="0.494" transform="matrix(-0.967, -0.255, 0.255, -0.967, 49.712, 49.632)" fill="#55769f"/>
        <rect id="Rectangle_162969" data-name="Rectangle 162969" width="37.933" height="0.494" transform="translate(49.085 52.016) rotate(-165.256)" fill="#55769f"/>
        <rect id="Rectangle_162970" data-name="Rectangle 162970" width="37.932" height="0.494" transform="translate(48.457 54.4) rotate(-165.256)" fill="#55769f"/>
        <rect id="Rectangle_162971" data-name="Rectangle 162971" width="37.933" height="0.494" transform="matrix(-0.967, -0.255, 0.255, -0.967, 47.83, 56.784)" fill="#55769f"/>
        <rect id="Rectangle_162972" data-name="Rectangle 162972" width="37.933" height="0.494" transform="matrix(-0.967, -0.255, 0.255, -0.967, 47.203, 59.168)" fill="#55769f"/>
      </g>
      <path id="Path_39289" data-name="Path 39289" d="M3128.354,941.065l51.041,20.5,29.77-74.126-42.89-26.458a4.566,4.566,0,0,0-6.635,2.185Z" transform="translate(-3115.751 -860.298)" fill="#feb546"/>
    </g>
    <g id="Group_177248" data-name="Group 177248" transform="translate(2357.173 302.316)">
      <path id="Path_39290" data-name="Path 39290" d="M3369.609,1345.829l9.248-2.709c1.628-6.73,2.606-12.462,2.606-12.462-11.158.45-19.745,3.865-26.35,8.719l-1.366,10.991L3350.8,1343c-15.593,14.871-17.417,37.826-17.417,37.826s31.385-12.28,37.366-17.34c2.31-1.954,4.434-7.293,6.171-13.112C3373.793,1348.692,3369.609,1345.829,3369.609,1345.829Z" transform="translate(-3330.893 -1330.658)" fill="#ff5b7e"/>
      <path id="Path_39291" data-name="Path 39291" d="M3381.462,1330.658s-36.728,28.81-48.084,50.167c0,0,31.385-12.28,37.366-17.34,2.31-1.954,4.434-7.293,6.171-13.112-3.122-1.681-7.306-4.545-7.306-4.545l9.248-2.709C3380.484,1336.39,3381.462,1330.658,3381.462,1330.658Z" transform="translate(-3330.893 -1330.658)" fill="#e03268"/>
      <path id="Path_39292" data-name="Path 39292" d="M3370.036,1547.945a44.167,44.167,0,0,0-18.309-1.39c-1.056,2.425-2.379,5.3-2.379,5.3l-1.481-4.6c-21.194,4.769-34.706,23.537-34.706,23.537,14.213,4.328,25.132,3.608,33.417.609.056-1.768.1-4.395.1-4.395l2.521,3.336a37.879,37.879,0,0,0,9.8-6.386c-1.324-1.726-2.766-3.718-2.766-3.718l5.213,1.329A41.016,41.016,0,0,0,3370.036,1547.945Z" transform="translate(-3313.16 -1519.669)" fill="#ff5b7e"/>
      <path id="Path_39293" data-name="Path 39293" d="M3346.577,1584.143c.056-1.768.1-4.4.1-4.4l2.521,3.336a37.882,37.882,0,0,0,9.8-6.386c-1.324-1.726-2.766-3.718-2.766-3.718l5.213,1.329a41.015,41.015,0,0,0,8.592-13.617c-25.161,3.85-56.875,22.843-56.875,22.843C3327.374,1587.862,3338.292,1587.142,3346.577,1584.143Z" transform="translate(-3313.16 -1532.416)" fill="#e03268"/>
    </g>
    <g id="Group_177249" data-name="Group 177249" transform="translate(2248.905 273.751)">
      <path id="Path_39294" data-name="Path 39294" d="M2446.448,1098.9h-3.49a3.649,3.649,0,0,1,2.063-.624h87.44c4.575,0,8.284,3.287,8.284,7.343v4.664c0,4.055-3.709,7.343-8.284,7.343L2446,1117.6Z" transform="translate(-2441.656 -1098.275)" fill="#e03268"/>
      <path id="Path_39295" data-name="Path 39295" d="M3119.7,1110.282v-4.664c0-4.055-3.708-7.343-8.283-7.343h1.878c4.575,0,8.283,3.287,8.283,7.343v4.664c0,4.055-3.708,7.343-8.283,7.343h-1.853C3116.006,1117.612,3119.7,1114.33,3119.7,1110.282Z" transform="translate(-3027.948 -1098.275)" fill="#feb546"/>
      <path id="Path_39296" data-name="Path 39296" d="M2953.1,1110.282v-4.664c0-4.055-3.709-7.343-8.284-7.343h1.878c4.575,0,8.283,3.287,8.283,7.343v4.664c0,4.055-3.708,7.343-8.283,7.343h-1.853C2949.405,1117.612,2953.1,1114.33,2953.1,1110.282Z" transform="translate(-2881.826 -1098.275)" fill="#feb546"/>
      <path id="Path_39297" data-name="Path 39297" d="M2486.8,1098.416c4.375,0,7.922,3.144,7.922,7.022v5.271c0,3.878-3.546,7.022-7.922,7.022h-54.434v-1.179h.225l13.838-1.162,2.8-9.727s-5.4-5.375-5.75-5.514-10.885-.559-10.885-.559l-.225,0v-1.172Z" transform="translate(-2432.368 -1098.399)" fill="#ff5b7e"/>
      <path id="Path_39298" data-name="Path 39298" d="M2437.433,1116.451a11.235,11.235,0,0,0-3.315-8.444h53.1c4.018,0,7.276,2.888,7.276,6.45v4.057c0,3.562-3.258,6.45-7.276,6.45h-53.1S2437.433,1123.611,2437.433,1116.451Z" transform="translate(-2433.903 -1106.811)" fill="#daeef7"/>
      <path id="Path_39299" data-name="Path 39299" d="M2494.5,1114.457v4.057a5.766,5.766,0,0,1-.212,1.547c-1.791-3.884-5.224-7.626-11.758-8.829-15.257-2.809-48.41-3.225-48.41-3.225h53.1C2491.24,1108.007,2494.5,1110.895,2494.5,1114.457Z" transform="translate(-2433.903 -1106.811)" fill="#daeef7" style="mix-blend-mode: multiply;isolation: isolate"/>
    </g>
    <g id="Group_177250" data-name="Group 177250" transform="translate(2249.713 312.269)">
      <path id="Path_39300" data-name="Path 39300" d="M2454.878,1412.411h-3.95a3.857,3.857,0,0,1,2.334-.781h98.966a9.284,9.284,0,0,1,9.375,9.191v5.838a9.285,9.285,0,0,1-9.375,9.191l-97.859-.033Z" transform="translate(-2449.454 -1411.63)" fill="#07085b"/>
      <path id="Path_39301" data-name="Path 39301" d="M2500.55,1411.806a8.879,8.879,0,0,1,8.966,8.79v6.6a8.879,8.879,0,0,1-8.966,8.79h-61.609v-1.476h.255l15.662-1.454,3.166-12.175s-6.11-6.728-6.509-6.9-12.319-.7-12.319-.7l-.255,0v-1.468Z" transform="translate(-2438.941 -1411.784)" fill="#55769f"/>
      <path id="Path_39302" data-name="Path 39302" d="M2444.676,1434.38c0-7.118-3.752-10.569-3.752-10.569h60.1a8.156,8.156,0,0,1,8.235,8.073v5.078a8.155,8.155,0,0,1-8.235,8.073h-60.1S2444.676,1443.343,2444.676,1434.38Z" transform="translate(-2440.68 -1422.314)" fill="#daeef7"/>
      <path id="Path_39303" data-name="Path 39303" d="M2509.262,1431.884v5.078a7.941,7.941,0,0,1-.24,1.936,17.612,17.612,0,0,0-13.308-11.051c-17.267-3.516-54.79-4.037-54.79-4.037h60.1A8.156,8.156,0,0,1,2509.262,1431.884Z" transform="translate(-2440.68 -1422.314)" fill="#daeef7" style="mix-blend-mode: multiply;isolation: isolate"/>
    </g>
    <g id="Group_177251" data-name="Group 177251" transform="translate(2258.356 293.051)">
      <path id="Path_39304" data-name="Path 39304" d="M2616.028,1255.907h3.952a4.553,4.553,0,0,0-2.335-.62h-99c-5.18,0-9.379,3.265-9.379,7.293v4.632c0,4.028,4.2,7.293,9.379,7.293l97.9-.026Z" transform="translate(-2509.261 -1255.287)" fill="#02ccc0"/>
      <path id="Path_39305" data-name="Path 39305" d="M2856.58,1255.426c-4.954,0-8.969,3.122-8.969,6.974v5.235c0,3.852,4.016,6.974,8.969,6.974h61.633v-1.171h-.255l-15.669-1.154-3.167-9.661s6.112-5.338,6.51-5.476,12.325-.556,12.325-.556l.255,0v-1.165Z" transform="translate(-2806.02 -1255.409)" fill="#06bfad"/>
      <path id="Path_39306" data-name="Path 39306" d="M2928.437,1273.339a10.645,10.645,0,0,1,3.754-8.386h-60.127c-4.55,0-8.239,2.868-8.239,6.406v4.029c0,3.538,3.688,6.406,8.239,6.406h60.127S2928.437,1280.451,2928.437,1273.339Z" transform="translate(-2820.241 -1263.765)" fill="#daeef7"/>
      <path id="Path_39307" data-name="Path 39307" d="M2863.825,1271.359v4.029a5.071,5.071,0,0,0,.24,1.537c2.028-3.858,5.915-7.574,13.313-8.769,17.274-2.79,54.812-3.2,54.812-3.2h-60.127C2867.513,1264.953,2863.825,1267.821,2863.825,1271.359Z" transform="translate(-2820.241 -1263.765)" fill="#daeef7" style="mix-blend-mode: multiply;isolation: isolate"/>
      <path id="Path_39308" data-name="Path 39308" d="M2589.729,1267.212v-4.632c0-4.028,4.2-7.293,9.379-7.293h-9.4c-5.18,0-9.379,3.265-9.379,7.293v4.632c0,4.028,4.2,7.293,9.379,7.293l9.277,0C2593.862,1274.451,2589.729,1271.207,2589.729,1267.212Z" transform="translate(-2571.592 -1255.287)" fill="#55769f" opacity="0.5"/>
    </g>
    <path id="Path_39309" data-name="Path 39309" d="M2475.831,1609.76h4.955a6.247,6.247,0,0,0-2.928-.693H2353.738c-6.494,0-11.758,3.648-11.758,8.148v5.176c0,4.5,5.264,8.148,11.758,8.148l122.731-.029Z" transform="translate(-104.186 -1272.529)" fill="#feb546"/>
    <path id="Path_39310" data-name="Path 39310" d="M2777.4,1609.223c-6.21,0-11.245,3.489-11.245,7.792v5.849c0,4.3,5.034,7.792,11.245,7.792h77.267v-1.308h-.319l-19.643-1.289-3.97-10.794s7.663-5.965,8.163-6.118,15.451-.621,15.451-.621l.319,0v-1.3Z" transform="translate(-476.225 -1272.666)" fill="#f4a640"/>
    <path id="Path_39311" data-name="Path 39311" d="M2867.49,1629.237a11.56,11.56,0,0,1,4.706-9.37h-75.379c-5.7,0-10.328,3.2-10.328,7.157v4.5c0,3.953,4.624,7.157,10.328,7.157H2872.2S2867.49,1637.183,2867.49,1629.237Z" transform="translate(-494.054 -1282.001)" fill="#daeef7"/>
    <path id="Path_39312" data-name="Path 39312" d="M2786.488,1627.024v4.5a5.1,5.1,0,0,0,.3,1.717c2.542-4.311,7.415-8.462,16.69-9.8,21.656-3.117,68.716-3.579,68.716-3.579h-75.379C2791.112,1619.867,2786.488,1623.071,2786.488,1627.024Z" transform="translate(-494.054 -1282.001)" fill="#daeef7" style="mix-blend-mode: multiply;isolation: isolate"/>
    <path id="Rectangle_162973" data-name="Rectangle 162973" d="M1.185,0H180.744a1.185,1.185,0,0,1,1.185,1.185v0a1.185,1.185,0,0,1-1.185,1.185H1.185A1.185,1.185,0,0,1,0,1.185v0A1.185,1.185,0,0,1,1.185,0Z" transform="translate(2405.121 360.232) rotate(180)" fill="#c4dfe8"/>
    <path id="Path_39313" data-name="Path 39313" d="M3430.736,1005.846l-34.75-19.876-4.7,9.3,35.558,18.812Z" transform="translate(-1024.512 -726.024)" fill="#f4a640"/>
    <path id="Path_39314" data-name="Path 39314" d="M3462.707,563.238s.274,2.7,2.407,2.89c-2.133.187-2.407,2.89-2.407,2.89s-.274-2.7-2.407-2.89C3462.433,565.941,3462.707,563.238,3462.707,563.238Z" transform="translate(-1085.04 -355.255)" fill="#02ccc0"/>
    <path id="Path_39315" data-name="Path 39315" d="M3760.01,1204.179s.411,4.054,3.61,4.335c-3.2.28-3.61,4.334-3.61,4.334s-.411-4.054-3.61-4.334C3759.6,1208.233,3760.01,1204.179,3760.01,1204.179Z" transform="translate(-1344.743 -917.41)" fill="#ff5b7e"/>
    <path id="Path_39316" data-name="Path 39316" d="M3681.291,383.441s.365,3.6,3.206,3.849c-2.841.249-3.206,3.849-3.206,3.849s-.365-3.6-3.206-3.849C3680.926,387.041,3681.291,383.441,3681.291,383.441Z" transform="translate(-1276.055 -197.559)" fill="#feb546"/>
    <path id="Path_39317" data-name="Path 39317" d="M2313.153,1334.039s.245,2.422,2.157,2.59c-1.912.168-2.157,2.59-2.157,2.59s-.246-2.423-2.157-2.59C2312.907,1336.461,2313.153,1334.039,2313.153,1334.039Z" transform="translate(-77.01 -1031.308)" fill="#feb546"/>
    <path id="Path_39318" data-name="Path 39318" d="M3584.955,780.113s.245,2.417,2.153,2.584c-1.908.167-2.153,2.585-2.153,2.585s-.246-2.417-2.153-2.585C3584.709,782.53,3584.955,780.113,3584.955,780.113Z" transform="translate(-1192.484 -545.471)" fill="#ff5b7e"/>
    <path id="Path_39319" data-name="Path 39319" d="M3314.793,263.943s.245,2.417,2.152,2.585c-1.907.167-2.152,2.585-2.152,2.585s-.245-2.417-2.153-2.585C3314.548,266.36,3314.793,263.943,3314.793,263.943Z" transform="translate(-955.531 -92.75)" fill="#ff5b7e"/>
    <path id="Path_39320" data-name="Path 39320" d="M2496.567,514.264s.321,3.163,2.817,3.382c-2.5.219-2.817,3.382-2.817,3.382s-.321-3.163-2.817-3.382C2496.246,517.427,2496.567,514.264,2496.567,514.264Z" transform="translate(-237.3 -312.301)" fill="#ff5b7e"/>
    <path id="Path_39321" data-name="Path 39321" d="M2312.531,960.012s.47,4.635,4.127,4.955c-3.657.321-4.127,4.955-4.127,4.955s-.47-4.635-4.127-4.955C2312.061,964.647,2312.531,960.012,2312.531,960.012Z" transform="translate(-74.737 -703.257)" fill="#ff5b7e"/>
    <path id="Path_39322" data-name="Path 39322" d="M3228.862,617.472s.365,3.6,3.206,3.849c-2.841.249-3.206,3.849-3.206,3.849s-.365-3.6-3.206-3.849C3228.5,621.072,3228.862,617.472,3228.862,617.472Z" transform="translate(-879.239 -402.822)" fill="#ff5b7e"/>
    <path id="Path_39323" data-name="Path 39323" d="M3788.977,933.625s.365,3.6,3.206,3.849c-2.84.249-3.206,3.849-3.206,3.849s-.365-3.6-3.206-3.849C3788.612,937.225,3788.977,933.625,3788.977,933.625Z" transform="translate(-1370.504 -680.113)" fill="#02ccc0"/>
    <path id="Path_39324" data-name="Path 39324" d="M2344.264,332.683s.26,2.565,2.284,2.742c-2.023.177-2.284,2.742-2.284,2.742s-.26-2.565-2.284-2.742C2344,335.248,2344.264,332.683,2344.264,332.683Z" transform="translate(-104.186 -153.04)" fill="#02ccc0"/>
    <path id="Path_39325" data-name="Path 39325" d="M2554.231,848.394s.417,4.107,3.657,4.391c-3.24.284-3.657,4.391-3.657,4.391s-.417-4.107-3.657-4.391C2553.815,852.5,2554.231,848.394,2554.231,848.394Z" transform="translate(-287.139 -605.359)" fill="#02ccc0"/>
    <path id="Path_39326" data-name="Path 39326" d="M2270,630.847s.285,3.258,2.5,3.484c-2.213.225-2.5,3.484-2.5,3.484s-.284-3.258-2.5-3.484C2269.716,634.105,2270,630.847,2270,630.847Z" transform="translate(-38.864 -414.553)" fill="#feb546"/>
    <path id="Path_39327" data-name="Path 39327" d="M2701.027,207.1s.285,3.268,2.5,3.494c-2.219.226-2.5,3.494-2.5,3.494s-.285-3.268-2.5-3.494C2700.741,210.368,2701.027,207.1,2701.027,207.1Z" transform="translate(-416.901 -42.894)" fill="#feb546"/>
    <g id="Group_177266" data-name="Group 177266" transform="translate(2300.035 185.121)">
      <g id="Group_177265" data-name="Group 177265" transform="translate(0)">
        <path id="Path_39328" data-name="Path 39328" d="M2994.316,740.6l5.607.45-1.81,4.536-2.83-.227-1.179,3.781c-.287-.131-.5-.231-.541-.259a34.646,34.646,0,0,1-.674-3.705Z" transform="translate(-2975.121 -695.941)" fill="#daeef7" style="mix-blend-mode: multiply;isolation: isolate"/>
        <path id="Path_39329" data-name="Path 39329" d="M3030.523,1079.929v1.977a.3.3,0,0,0,.3.3h4.614a.335.335,0,0,0,.18-.617l-2.589-1.655A2.447,2.447,0,0,1,3030.523,1079.929Z" transform="translate(-3008.128 -993.554)" fill="#e03268"/>
        <path id="Path_39330" data-name="Path 39330" d="M2938.1,379.842a.091.091,0,0,1-.123-.1,10.305,10.305,0,0,0,.335-2.339c-.158-.073-.511,1.465-.671,1.484s.221-1.473.04-1.523-.484,1.321-.568,1.326.065-1.339-.023-1.433-.423,1.323-.523,1.358-.194-1.018-.286-1.021-.152-.019-.62,2.415a3.376,3.376,0,0,1-.186,1.1l.351.717,1.089.036s2.365-2.14,2.346-2.27S2939.137,379.435,2938.1,379.842Z" transform="translate(-2924.762 -377.249)" fill="#ffc0bb"/>
        <path id="Path_39331" data-name="Path 39331" d="M3041.411,386.528a.091.091,0,0,0,.156-.036,10.3,10.3,0,0,1,.768-2.235c.174.007-.213,1.537-.078,1.626s.474-1.412.658-1.374-.171,1.4-.1,1.44.552-1.222.674-1.265-.226,1.37-.153,1.447.637-.818.72-.779.144.052-.549,2.431a3.377,3.377,0,0,0-.337,1.065l-.639.478-.986-.464s-1.13-2.983-1.053-3.09S3040.673,385.692,3041.411,386.528Z" transform="translate(-3016.869 -383.395)" fill="#ffc0bb"/>
        <path id="Path_39332" data-name="Path 39332" d="M2948.883,553.139l.017,4.161-4.042-.623.675-4.679Z" transform="translate(-2932.993 -530.517)" fill="#ffc0bb"/>
        <path id="Path_39333" data-name="Path 39333" d="M2947.818,554.152l.311-2.154,3.354,1.535,0,.821A6.1,6.1,0,0,1,2947.818,554.152Z" transform="translate(-2935.589 -530.518)" fill="#fc8d84" opacity="0.6"/>
        <path id="Path_39334" data-name="Path 39334" d="M2877.028,1078.142v2.168a.324.324,0,0,1-.324.324h-5.076a.367.367,0,0,1-.2-.677l2.848-1.815A2.7,2.7,0,0,0,2877.028,1078.142Z" transform="translate(-2868.442 -991.987)" fill="#e03268"/>
        <g id="Group_177254" data-name="Group 177254" transform="translate(2.776 46.08)">
          <g id="Group_177253" data-name="Group 177253">
            <g id="Group_177252" data-name="Group 177252">
              <path id="Path_39335" data-name="Path 39335" d="M2872.093,755.362c.01-.464-1.2.9-1.174.533.474-7.7,15.515-1.244,15.515-1.244l3.671,2.694,4.145,35.678a7.448,7.448,0,0,1-3.73.118l-9.179-30.573-1.129-.434A63.771,63.771,0,0,1,2872.093,755.362Z" transform="translate(-2870.918 -752.119)" fill="#07085b"/>
            </g>
          </g>
        </g>
        <g id="Group_177264" data-name="Group 177264" transform="translate(2.728 48.107)">
          <g id="Group_177263" data-name="Group 177263">
            <g id="Group_177255" data-name="Group 177255" transform="translate(0.02 2.063)">
              <path id="Path_39336" data-name="Path 39336" d="M2870.7,785.4c0,.09-.008.182-.012.277C2870.687,785.577,2870.691,785.485,2870.7,785.4Z" transform="translate(-2870.683 -785.395)" fill="#06bfad"/>
            </g>
            <g id="Group_177256" data-name="Group 177256" transform="translate(0.01 2.344)">
              <path id="Path_39337" data-name="Path 39337" d="M2870.609,787.685c0,.1-.007.2-.01.3C2870.6,787.881,2870.605,787.781,2870.609,787.685Z" transform="translate(-2870.599 -787.685)" fill="#06bfad"/>
            </g>
            <g id="Group_177257" data-name="Group 177257" transform="translate(0 2.68)">
              <path id="Path_39338" data-name="Path 39338" d="M2870.529,790.418c0,.1-.006.212-.008.322C2870.523,790.63,2870.526,790.523,2870.529,790.418Z" transform="translate(-2870.521 -790.418)" fill="#06bfad"/>
            </g>
            <g id="Group_177258" data-name="Group 177258" transform="translate(0.035 1.749)">
              <path id="Path_39339" data-name="Path 39339" d="M2870.819,782.841c-.005.083-.01.17-.014.258C2870.81,783.011,2870.814,782.924,2870.819,782.841Z" transform="translate(-2870.805 -782.841)" fill="#06bfad"/>
            </g>
            <g id="Group_177259" data-name="Group 177259" transform="translate(0.037)">
              <path id="Path_39340" data-name="Path 39340" d="M2870.837,768.613a100.848,100.848,0,0,0,9.291,7.989l1.129.434-1.129-.434-3.49,30.888s-2.487.474-3.908-.3C2872.73,807.194,2870.635,777.792,2870.837,768.613Z" transform="translate(-2870.823 -768.613)" fill="#07085b"/>
            </g>
            <g id="Group_177260" data-name="Group 177260" transform="translate(21.326 38.877)">
              <path id="Path_39341" data-name="Path 39341" d="M3046.071,1084.888a9.67,9.67,0,0,1-2.054.323,9.67,9.67,0,0,0,2.054-.323Z" transform="translate(-3044.017 -1084.888)" fill="#06bfad"/>
            </g>
            <g id="Group_177261" data-name="Group 177261" transform="translate(20.084 39.116)">
              <path id="Path_39342" data-name="Path 39342" d="M3033.908,1086.83c.1.02.2.037.3.05C3034.11,1086.867,3034.008,1086.85,3033.908,1086.83Z" transform="translate(-3033.908 -1086.83)" fill="#06bfad"/>
            </g>
            <g id="Group_177262" data-name="Group 177262" transform="translate(20.544 39.183)">
              <path id="Path_39343" data-name="Path 39343" d="M3038.431,1087.391a6.017,6.017,0,0,1-.783-.017A6.017,6.017,0,0,0,3038.431,1087.391Z" transform="translate(-3037.648 -1087.374)" fill="#06bfad"/>
            </g>
          </g>
        </g>
        <path id="Path_39344" data-name="Path 39344" d="M2965.02,763.4l.592,5.092c-1.565.606-5.381,1.253-8.256-5.035a8.016,8.016,0,0,1-.973-4.436,40.823,40.823,0,0,1,4.965,1.685Z" transform="translate(-2943.057 -712.09)" fill="#050645"/>
        <path id="Path_39345" data-name="Path 39345" d="M2875.08,583.433c.174,0,2.779-5.9,2.779-5.9,2.229,1.563,5.253.478,5.253.478s12.171,22.273,4.009,25.746-15.862-.753-15.862-.753-1.737-4.515-1.737-4.689S2874.906,583.433,2875.08,583.433Z" transform="translate(-2866.917 -552.909)" fill="#daeef7"/>
        <path id="Path_39346" data-name="Path 39346" d="M2982.884,415.508s.527,10.567-.463,12.5c-3.285,6.426-7.367,7.077-7.367,7.077s-1.4,22.475-.246,27.859c0,0,3.85,1.187,9.523-1.476,0,0-4.342-17.425-4.11-19.624,0,0,6.947-6.194,7.178-13.488a49.248,49.248,0,0,0-1.679-13.778Z" transform="translate(-2958.86 -409.993)" fill="#55769f"/>
        <path id="Path_39347" data-name="Path 39347" d="M2853.628,449.54a102.6,102.6,0,0,1,2.344-16.3,82.647,82.647,0,0,1,3.3-11.23c-2.562-2.822-2.136-5.373-1.91-8.683.26-3.821,3.994-11.462,3.994-11.462l-2.518-1.65c-12.07,14.5-5.384,26.05-5.384,26.05s-4.515,15.977-5.123,20.84A36.769,36.769,0,0,0,2853.628,449.54Z" transform="translate(-2848.331 -397.395)" fill="#55769f"/>
        <path id="Path_39348" data-name="Path 39348" d="M3009.909,617.991a2.665,2.665,0,0,1-.485-.461,4.9,4.9,0,0,1-.961-2.091,6.078,6.078,0,0,0,1.033,2.029,2.461,2.461,0,0,0,.564.515l-.034.031c0,.014,0,.03,0,.046a1.319,1.319,0,0,1-.917-.215,4.184,4.184,0,0,1-.772-.554,5.56,5.56,0,0,0,.8.5A1.726,1.726,0,0,0,3009.909,617.991Z" transform="translate(-2988.665 -586.16)" fill="#fff"/>
        <path id="Path_39349" data-name="Path 39349" d="M2890.135,593.6a2.668,2.668,0,0,0,.551-.508,5.909,5.909,0,0,0,1.033-2.029,4.9,4.9,0,0,1-.961,2.091,2.671,2.671,0,0,1-.485.461,1.1,1.1,0,0,0,.34-.039,2.239,2.239,0,0,0,.436-.162,5.436,5.436,0,0,0,.8-.5,4.2,4.2,0,0,1-.772.554,2.265,2.265,0,0,1-.443.186.938.938,0,0,1-.495.025l-.093-.025Z" transform="translate(-2884.919 -564.785)" fill="#fff"/>
        <path id="Path_39350" data-name="Path 39350" d="M2928.688,489.8l-.244,2.856.451.284.834-3.477Z" transform="translate(-2918.596 -475.665)" fill="#07085b"/>
        <path id="Path_39351" data-name="Path 39351" d="M2921.807,505.864a.978.978,0,1,1-1.162-.992A1.094,1.094,0,0,1,2921.807,505.864Z" transform="translate(-2911.108 -489.172)" fill="#f99893"/>
        <path id="Path_39352" data-name="Path 39352" d="M2928.651,478.559a9.428,9.428,0,0,1-.04-2.4c.016-.156.022-.312.026-.469a5.1,5.1,0,1,1,10.09,1.121,1.1,1.1,0,0,1,.988.119,1.536,1.536,0,0,1-1.736,2.444.973.973,0,0,1-.2-.186,4.777,4.777,0,0,1-5.516,3.362A4.69,4.69,0,0,1,2928.651,478.559Z" transform="translate(-2918.692 -459.228)" fill="#ffc0bb"/>
        <path id="Path_39353" data-name="Path 39353" d="M2974.064,513.954a.445.445,0,1,0,.4-.277A.446.446,0,0,0,2974.064,513.954Z" transform="translate(-2958.581 -496.907)" fill="#333"/>
        <path id="Path_39354" data-name="Path 39354" d="M2943.271,509.345a.445.445,0,1,0,.4-.277A.445.445,0,0,0,2943.271,509.345Z" transform="translate(-2931.572 -492.865)" fill="#333"/>
        <path id="Path_39355" data-name="Path 39355" d="M2949.952,538.022a2.91,2.91,0,0,1-.715.245,2.257,2.257,0,0,1-.744.029,1.923,1.923,0,0,1-.7-.244,2.7,2.7,0,0,1-.582-.481,2.057,2.057,0,0,0,.545.539,1.752,1.752,0,0,0,.724.274,2.011,2.011,0,0,0,.771-.05A2.2,2.2,0,0,0,2949.952,538.022Z" transform="translate(-2935.057 -517.864)" fill="#f99893"/>
        <path id="Path_39356" data-name="Path 39356" d="M2971.372,506.017a4.165,4.165,0,0,1,.665-.071,2.2,2.2,0,0,1,.618.073,2.032,2.032,0,0,1,.568.247,6.329,6.329,0,0,1,.545.391,1.471,1.471,0,0,0-.39-.592,1.447,1.447,0,0,0-.641-.357,1.513,1.513,0,0,0-.732-.012A1.4,1.4,0,0,0,2971.372,506.017Z" transform="translate(-2956.248 -489.872)" fill="#07085b"/>
        <path id="Path_39357" data-name="Path 39357" d="M2939.333,500.99a1.4,1.4,0,0,0-.5-.507,1.515,1.515,0,0,0-.7-.223,1.446,1.446,0,0,0-.721.133,1.479,1.479,0,0,0-.56.436,6.2,6.2,0,0,1,.641-.2,2.034,2.034,0,0,1,.617-.051,2.189,2.189,0,0,1,.609.129A4.181,4.181,0,0,1,2939.333,500.99Z" transform="translate(-2925.977 -485.136)" fill="#07085b"/>
        <path id="Path_39358" data-name="Path 39358" d="M2953.97,510.785a6.379,6.379,0,0,0-.58.628,6.026,6.026,0,0,0-.5.7,1.676,1.676,0,0,0-.219.515c-.014.093-.007.184.149.338a2.048,2.048,0,0,0,.336.278,2.781,2.781,0,0,0,.373.214,4.675,4.675,0,0,1-.605-.581.8.8,0,0,1-.1-.152.326.326,0,0,1,.03-.159,2.284,2.284,0,0,1,.185-.363c.141-.24.3-.472.457-.707S2953.817,511.026,2953.97,510.785Z" transform="translate(-2939.843 -494.371)" fill="#f99893"/>
        <path id="Path_39359" data-name="Path 39359" d="M2925.4,453.15s-1.5-.289.347-1.195,6.377-1.433,8.745.6c0,0,.8-1.022,1.512-.573s-.745.945-.745.945,1,.193,1.193.748c.143.411-.469.289-.8.2.543.224,2.141,1.733.066,5.856a36.1,36.1,0,0,1-2.743-3.56s-4.775,1.569-3.9.268c0,0-5.564,1.4-4.216-1.123C2924.855,455.31,2922.8,455,2925.4,453.15Z" transform="translate(-2914.773 -442.069)" fill="#07085b"/>
        <path id="Path_39360" data-name="Path 39360" d="M2997.49,477.029a.978.978,0,0,0-.911-.072c-.55.2-.9,1.439-.9,1.439s-1.8,1.476-.923-4.955c.863-6.318,2.058,1.052,2.058,1.052Z" transform="translate(-2976.546 -459.373)" fill="#07085b"/>
      </g>
    </g>
    <g id="Group_177269" data-name="Group 177269" transform="translate(2309.783 158.195)">
      <path id="Path_39361" data-name="Path 39361" d="M2976.305,345.048l-8.239-.587a.756.756,0,0,1-.7-.809h0a.756.756,0,0,1,.808-.7l8.239.587a.757.757,0,0,1,.7.809h0A.757.757,0,0,1,2976.305,345.048Z" transform="translate(-2962.48 -320.239)" fill="#feb546"/>
      <path id="Path_39362" data-name="Path 39362" d="M2939.086,158.195l2.879,7.058,7.446,1.629-5.823,4.919.751,7.585-6.477-4.017-6.982,3.059,1.819-7.4-5.066-5.695,7.6-.557Z" transform="translate(-2927.634 -158.195)" fill="#feb546"/>
      <g id="Group_177268" data-name="Group 177268" transform="translate(0 0)">
        <g id="Group_177267" data-name="Group 177267">
          <path id="Path_39363" data-name="Path 39363" d="M3015.537,158.195l-.738,10.356,3.617-3.3Z" transform="translate(-3004.085 -158.195)" fill="#f4a640"/>
          <path id="Path_39364" data-name="Path 39364" d="M3025.862,228.864l-11.063,1.669,5.24,3.25Z" transform="translate(-3004.085 -220.177)" fill="#f4a640"/>
          <path id="Path_39365" data-name="Path 39365" d="M2938.348,215.487l-3.113-3.778-7.6.557Z" transform="translate(-2927.634 -205.131)" fill="#f4a640"/>
          <path id="Path_39366" data-name="Path 39366" d="M2954.05,252.318l7.468-9.876-5.648,2.474Z" transform="translate(-2950.803 -232.086)" fill="#f4a640"/>
          <path id="Path_39367" data-name="Path 39367" d="M3017.326,253.277l-5.992-10.835-.486,6.818Z" transform="translate(-3000.62 -232.086)" fill="#f4a640"/>
        </g>
      </g>
      <rect id="Rectangle_162974" data-name="Rectangle 162974" width="12.548" height="4.41" transform="translate(3.436 24.23) rotate(4.075)" fill="#6f747a"/>
      <rect id="Rectangle_162975" data-name="Rectangle 162975" width="0.482" height="12.548" transform="translate(3.123 28.629) rotate(-85.926)" fill="#cdd6e0" style="mix-blend-mode: multiply;isolation: isolate"/>
      <rect id="Rectangle_162976" data-name="Rectangle 162976" width="0.482" height="12.548" transform="translate(3.411 24.587) rotate(-85.926)" fill="#cdd6e0" style="mix-blend-mode: multiply;isolation: isolate"/>
      <path id="Path_39368" data-name="Path 39368" d="M2964.8,349.918l-12.329-.878a.567.567,0,0,1-.525-.605h0a.567.567,0,0,1,.605-.525l12.329.878a.567.567,0,0,1,.525.605h0A.567.567,0,0,1,2964.8,349.918Z" transform="translate(-2948.956 -324.588)" fill="#f4a640"/>
      <path id="Path_39369" data-name="Path 39369" d="M2961.306,392l-13.155-.937a.153.153,0,0,1-.141-.163l.059-.826a.153.153,0,0,1,.163-.141l13.155.937a.153.153,0,0,1,.142.163l-.059.826A.152.152,0,0,1,2961.306,392Z" transform="translate(-2945.505 -361.446)" fill="#6f747a"/>
      <path id="Path_39370" data-name="Path 39370" d="M2982.49,368.9l-4.76-.339a1.073,1.073,0,0,1-.995-1.147h0a1.073,1.073,0,0,1,1.147-.995l4.76.339a1.074,1.074,0,0,1,.995,1.147h0A1.074,1.074,0,0,1,2982.49,368.9Z" transform="translate(-2970.698 -340.824)" fill="#feb546"/>
      <path id="Path_39371" data-name="Path 39371" d="M2980.31,370.775a.717.717,0,0,1-.651-.853.736.736,0,0,1,.783-.573l4.7.335a.736.736,0,0,1,.694.678.716.716,0,0,1-.766.752Z" transform="translate(-2973.252 -343.392)" fill="#d9d9d9" style="mix-blend-mode: multiply;isolation: isolate"/>
      <path id="Path_39372" data-name="Path 39372" d="M2999.083,304.291l-2.647-.189.018-.245a13.289,13.289,0,0,1,1.754-5.95h0a12.883,12.883,0,0,1,.893,6.138Z" transform="translate(-2987.978 -280.733)" fill="#feb546"/>
    </g>
  </g>
</svg>
