<svg id="SvgjsG1014" xmlns="http://www.w3.org/2000/svg" width="26.648" height="26.648" viewBox="0 0 26.648 26.648">
  <g id="Group_176928" data-name="Group 176928">
    <path id="Path_3668" data-name="Path 3668" d="M0,0H26.648V26.648H0Z" fill="none"/>
    <path id="Path_3561" data-name="Path 3561" d="M3.4,23.718a1,1,0,0,1-1-1v-6a1,1,0,1,1,2,0v3.583l5.774-5.774a1,1,0,0,1,1.413,1.413L5.812,21.72H9.4a1,1,0,1,1,0,2ZM14.432,11.586a1,1,0,0,1,0-1.413L20.205,4.4H16.622a1,1,0,1,1,0-2h6a1,1,0,0,1,1,1v6a1,1,0,1,1-2,0V5.812l-5.774,5.774a1,1,0,0,1-1.414,0Z" transform="translate(0.265 0.265)" fill="#525863"/>
  </g>
</svg>
