<svg xmlns="http://www.w3.org/2000/svg" width="180.953" height="218" viewBox="0 0 180.953 218">
  <g id="undraw_certificate_re_yadi" transform="translate(0.003 0)">
    <path id="Path_38853" data-name="Path 38853" d="M307.222,406.2a8.853,8.853,0,0,0,13.407,2.131l27.29,15.652L346.9,407.67l-25.759-12.362a8.9,8.9,0,0,0-13.92,10.9Z" transform="translate(-305.93 -301.937)" fill="#ffb8b8"/>
    <path id="Path_38854" data-name="Path 38854" d="M544.786,625.679c-8.1,11.33-7.806,30.286-5.547,51.032h38.274l1.664-3.883,2.219,3.883h36.056s-2.773-52.7-7.766-54.361S544.786,625.679,544.786,625.679Z" transform="translate(-464.486 -458.711)" fill="#2f2e41"/>
    <circle id="Ellipse_784" data-name="Ellipse 784" cx="19.414" cy="19.414" r="19.414" transform="translate(93.612 9.762)" fill="#ffb8b8"/>
    <path id="Path_38855" data-name="Path 38855" d="M566.485,275.368l3.8,7.277,26.26,11.706-6.9,66.8-2.905,6.917,1.57,6.007-3.784,4.433c3.8,3.437,4.281,7.035,2.215,10.757l-12.093,2.77S507.4,398.015,513.07,387.6c6.192-11.382,7.768-44.994-5.9-62.957-11.6-15.249-2.7-35.037-2.7-35.037L532,281.379l10.124-6.011Z" transform="translate(-439.427 -221.74)" fill="#212c81"/>
    <path id="Path_38856" data-name="Path 38856" d="M624.24,106.6a1.071,1.071,0,0,1,1.03-.611c-8.888-.532-18.25.5-25.686,5.4a38.745,38.745,0,0,1-5.46,3.463.588.588,0,0,0-.12,1l.215.169a.59.59,0,0,1-.192,1.029h0a.59.59,0,0,0-.148,1.061l1.65,1.066a.588.588,0,0,1,.005.989,2.927,2.927,0,0,1-.439.222.589.589,0,0,0-.187.989,5.865,5.865,0,0,1,1.6,2.334,15.038,15.038,0,0,1,.742,4.517c.568-2.207,2.977-3.505,5.251-3.637s4.493.619,6.707,1.158a37.1,37.1,0,0,0,14.727.567c-1.663,3.337-.26,7.318,1.151,10.77l4.57-1.959c6.276-3.543,1.9,11.443-.442,13.5,4.791,1.661,17.329-16.773,13.3-23.765-2.1-3.637-.609-8.328-4.734-11.778-2.022-2.128-6.058-1.182-8.12-2.951-.811-.7.425-2.559-.69-2.965A32.495,32.495,0,0,0,624.24,106.6Z" transform="translate(-502.594 -105.865)" fill="#2f2e41"/>
    <path id="Path_38857" data-name="Path 38857" d="M441.591,300.308c-3.562,15.816-12.7,52.744-21.97,60.467a5.407,5.407,0,0,1-2.063,1.218c-32.584,7.938-43.025-12.31-43.025-12.31s8.732-4.255,8.954-12.573l17.61,5.464,15.351-34.546,2.259-2.107.013-.013Z" transform="translate(-352.831 -238.789)" fill="#3f3d56"/>
    <path id="Path_38858" data-name="Path 38858" d="M773.424,667.63a8.853,8.853,0,0,0-.93-13.543l9.135-30.105-15.673,4.65-6.271,27.875a8.9,8.9,0,0,0,13.74,11.123Z" transform="translate(-615.189 -460.058)" fill="#ffb8b8"/>
    <path id="Path_38859" data-name="Path 38859" d="M770.062,330.044l7.24,1.684s29.925,58.223,22.714,69.317-16.045,47.823-16.045,47.823-13.066-2.6-18.058-9.254l9.142-43.562-9.43-36.61Z" transform="translate(-620.187 -259.117)" fill="#3f3d56"/>
    <path id="Path_38860" data-name="Path 38860" d="M345.51,385.278l.26-93.772a7.167,7.167,0,0,1,7.179-7.139l70.819.2a7.167,7.167,0,0,1,7.139,7.179l-.26,93.772a7.167,7.167,0,0,1-7.178,7.139l-70.819-.2a7.167,7.167,0,0,1-7.139-7.179Z" transform="translate(-332.99 -227.892)" fill="#e6e6e6"/>
    <path id="Path_38861" data-name="Path 38861" d="M362.928,369.139l.167-60.286a6.712,6.712,0,0,1,6.723-6.686l60.863.169a6.712,6.712,0,0,1,6.686,6.723l-.231,83.445a6.712,6.712,0,0,1-6.723,6.686l-37.7-.1A29.9,29.9,0,0,1,362.928,369.139Z" transform="translate(-344.897 -240.061)" fill="#fff"/>
    <path id="Path_38862" data-name="Path 38862" d="M446.339,373.563H398.881a2.847,2.847,0,1,1,0-5.695h47.458a2.847,2.847,0,0,1,0,5.695Z" transform="translate(-367.529 -284.975)" fill="#009cdd"/>
    <path id="Path_38863" data-name="Path 38863" d="M409.322,332.063H398.881a2.847,2.847,0,1,1,0-5.695h10.441a2.847,2.847,0,1,1,0,5.695Z" transform="translate(-367.529 -256.604)" fill="#6c63ff"/>
    <path id="Path_38864" data-name="Path 38864" d="M446.339,415.063H398.881a2.847,2.847,0,0,1,0-5.695h47.458a2.847,2.847,0,1,1,0,5.695Z" transform="translate(-367.529 -313.345)" fill="#60ba46"/>
    <path id="Path_38865" data-name="Path 38865" d="M446.339,456.563H398.881a2.847,2.847,0,0,1,0-5.695h47.458a2.847,2.847,0,0,1,0,5.695Z" transform="translate(-367.529 -341.715)" fill="#ee362e"/>
    <circle id="Ellipse_785" data-name="Ellipse 785" cx="11.33" cy="11.33" r="11.33" transform="translate(63.64 126.785)" fill="#212c81"/>
    <path id="Path_38866" data-name="Path 38866" d="M528.61,535.562a1.26,1.26,0,0,1-1.008-.5l-3.091-4.121a1.26,1.26,0,1,1,2.017-1.512l2.022,2.7,5.194-7.791a1.26,1.26,0,0,1,2.1,1.4L529.659,535a1.261,1.261,0,0,1-1.014.561Z" transform="translate(-455.185 -391.55)" fill="#fff"/>
    <circle id="Ellipse_786" data-name="Ellipse 786" cx="5.379" cy="5.379" r="5.379" transform="translate(45.432 23.888)" fill="#f2f2f2"/>
    <circle id="Ellipse_787" data-name="Ellipse 787" cx="5.379" cy="5.379" r="5.379" transform="translate(25.816 178.599)" fill="#f2f2f2"/>
    <circle id="Ellipse_788" data-name="Ellipse 788" cx="5.379" cy="5.379" r="5.379" transform="translate(149.522 44.769)" fill="#f2f2f2"/>
  </g>
</svg>
