<svg xmlns="http://www.w3.org/2000/svg" width="379.874" height="302.983" viewBox="0 0 379.874 302.983">
  <g id="Group_177241" data-name="Group 177241" transform="translate(-4313.496 -222.056)">
    <path id="Path_39197" data-name="Path 39197" d="M6978.352,1003.541c14.2-8.8,18.526,18.923,27.327,33.119s30.165,20.041,15.969,28.841-38.164-2.738-49.87-14.652C6954.756,1033.527,6964.155,1012.342,6978.352,1003.541Z" transform="translate(-2371.178 -697.975)" fill="#f8f0e3"/>
    <path id="Path_39198" data-name="Path 39198" d="M4457.326,608.588c-17.589-20.7-6.51-32.607,18.952-38.706,26.342-6.31,12.73-73.7,29.947-60.885,21.754,16.191,18.769,57.526,12,77.89C4508.322,616.644,4487.351,643.924,4457.326,608.588Z" transform="translate(-121.075 -255.387)" fill="#f8f0e3"/>
    <g id="Group_177183" data-name="Group 177183" transform="translate(4313.496 222.056)">
      <path id="Path_39199" data-name="Path 39199" d="M4693.37,466.127a55,55,0,0,1-3.456,19.272,40.667,40.667,0,0,1-5.708,10.323,30.379,30.379,0,0,1-8.671,7.823,60.929,60.929,0,0,1-20.035,6.893,179.819,179.819,0,0,1-21.444,2.161q-4.7.27-9.417.433t-9.434.163c-4.083,0-8.164-.1-12.235-.331s-8.132-.594-12.171-1.12q-4.115-.534-8.207-1.209t-8.168-1.442c-3.465-.653-6.923-1.353-10.376-2.075s-6.905-1.466-10.356-2.211-6.9-1.489-10.356-2.213-6.915-1.42-10.378-2.075c-1.115-.21-2.233-.428-3.368-.648-3.215-.626-6.5-1.266-9.792-1.749a68,68,0,0,0-9.833-.811,39.514,39.514,0,0,0-6.587.519,29.32,29.32,0,0,0-6.3,1.778c-.856.353-1.7.745-2.525,1.158s-1.654.848-2.476,1.281c-1.009.532-2.02,1.064-3.047,1.56a32,32,0,0,1-3.146,1.338c-2.689.957-8.239,2.318-8.239,2.318s-7.8,1.963-11.664,3.076c-1.112.319-2.206.641-3.314.969-1.79.53-3.564,1.064-5.352,1.6s-3.571,1.076-5.351,1.6l-.359.106c-7.582,2.246-15.22,4.508-22.936,6.356a147.781,147.781,0,0,1-23.4,3.871q-2.631.2-5.274.193a87.627,87.627,0,0,1-17.973-1.976,124.3,124.3,0,0,1-17.4-5.085,112.2,112.2,0,0,1-18.588-8.731,73.16,73.16,0,0,1-16.007-12.631,51.7,51.7,0,0,1-10.506-17.842,96.265,96.265,0,0,1-4.752-20.543c-.551-4.289-.938-8.624-1.133-12.97q-.146-3.2-.146-6.406a121.618,121.618,0,0,1,2.029-22.595,67.552,67.552,0,0,1,3.311-12.356,23.3,23.3,0,0,1,7.059-10.081,27.382,27.382,0,0,1,11.325-4.815,93.2,93.2,0,0,1,12.6-1.454l.153-.01.146-.01c2.651-.181,5.438-.3,8.285-.415,7.7-.319,15.858-.658,23.122-2.38s13.632-4.825,17.756-10.675a48.558,48.558,0,0,0,4.981-9.039,69.966,69.966,0,0,0,3.282-9.839c.821-3.17,1.482-6.413,2.06-9.695s1.078-6.6,1.574-9.923.994-6.635,1.571-9.913,1.236-6.519,2.057-9.682c.8-3.094,1.774-6.134,2.855-9.141s2.27-5.978,3.507-8.931c.985-2.352,2-4.689,3.013-7.027s2.024-4.67,3-7.009c2.708-6.467,5.446-12.994,8.55-19.316q.541-1.1,1.1-2.2a112.705,112.705,0,0,1,9.639-15.886,61.51,61.51,0,0,1,3.956-4.832,56.141,56.141,0,0,1,4.16-4.143,46.14,46.14,0,0,1,9.91-6.854,77.453,77.453,0,0,1,19.073-6.549,100.09,100.09,0,0,1,20.407-2.031c3.218,0,6.431.141,9.614.41s6.333.668,9.426,1.184a68.518,68.518,0,0,1,26.777,11.125,86.56,86.56,0,0,1,21.112,20.32,82.88,82.88,0,0,1,7.476,11.9,37.357,37.357,0,0,1,4.012,13.219c.1,1.143.149,2.283.149,3.42a46.619,46.619,0,0,1-.625,7.407,76.848,76.848,0,0,1-2.246,9.517c-.937,3.159-2.015,6.309-3.093,9.462-1.083,3.171-2.169,6.344-3.112,9.532a77.294,77.294,0,0,0-2.272,9.628,32.833,32.833,0,0,0-.41,5.213A34.066,34.066,0,0,0,4577.537,355a65.928,65.928,0,0,0,9.4,9.6,129.385,129.385,0,0,0,10.892,8.129c2.32,1.576,4.673,3.116,7.017,4.649s4.657,3.045,6.937,4.593c.892.606,1.783,1.226,2.664,1.847,2.53,1.785,5.02,3.63,7.489,5.5s4.916,3.777,7.361,5.679,4.894,3.806,7.362,5.679,4.958,3.718,7.489,5.5,5.092,3.546,7.65,5.3c4.61,3.171,9.229,6.346,13.706,9.688a142.593,142.593,0,0,1,12.866,10.7,58.266,58.266,0,0,1,7.286,8.243,41.464,41.464,0,0,1,3.168,5.144,33.637,33.637,0,0,1,1.929,4.511A50.879,50.879,0,0,1,4693.37,466.127Z" transform="translate(-4313.496 -222.056)" fill="#f8f0e3"/>
    </g>
    <rect id="Rectangle_162935" data-name="Rectangle 162935" width="48.499" height="20.717" transform="translate(4346.335 414.952)" fill="#f4e5ce"/>
    <rect id="Rectangle_162936" data-name="Rectangle 162936" width="48.499" height="20.717" transform="translate(4417.963 384.235)" fill="#f4e5ce"/>
    <rect id="Rectangle_162937" data-name="Rectangle 162937" width="48.499" height="20.717" transform="translate(4561.508 400.047)" fill="#f4e5ce"/>
    <rect id="Rectangle_162938" data-name="Rectangle 162938" width="48.499" height="20.717" transform="translate(4494.781 270.161)" fill="#f4e5ce"/>
    <path id="Path_39200" data-name="Path 39200" d="M5518.672,408.648v20.718h-29.624a112.708,112.708,0,0,1,9.64-15.886,61.4,61.4,0,0,1,3.956-4.832Z" transform="translate(-1052.208 -167.014)" fill="#f4e5ce"/>
    <path id="Path_39201" data-name="Path 39201" d="M4694.615,2370.219c0,.473-.007.948-.019,1.422-.012.448-.028.895-.05,1.343a54.644,54.644,0,0,1-3.387,16.508,41.408,41.408,0,0,1-2.941,6.185q-.405.7-.848,1.394c-.6.942-1.239,1.86-1.918,2.745a30.38,30.38,0,0,1-8.671,7.823,49.75,49.75,0,0,1-7.325,3.47c-.43.166-.859.324-1.294.477a72.688,72.688,0,0,1-11.416,2.946,179.834,179.834,0,0,1-21.445,2.161q-4.7.269-9.417.433t-9.435.163c-4.083,0-8.164-.1-12.235-.331s-8.132-.594-12.171-1.12q-4.115-.534-8.206-1.209t-8.168-1.442c-3.465-.653-6.923-1.353-10.376-2.075s-6.905-1.466-10.356-2.211-6.9-1.489-10.356-2.213-6.915-1.42-10.378-2.075c-1.115-.21-2.233-.428-3.368-.648-3.215-.626-6.5-1.266-9.792-1.749a67.96,67.96,0,0,0-9.833-.811,39.515,39.515,0,0,0-6.587.519,29.316,29.316,0,0,0-6.3,1.778c-.856.353-1.7.745-2.525,1.158s-1.654.848-2.477,1.281c-1.009.532-2.02,1.064-3.047,1.56a31.967,31.967,0,0,1-3.146,1.338c-2.689.957-8.24,2.319-8.24,2.319s-7.8,1.962-11.664,3.075c-1.111.319-2.206.641-3.314.969-1.789.531-3.564,1.064-5.352,1.6s-3.571,1.076-5.351,1.6l-.359.106q-1.772.526-3.552,1.051-2.293.675-4.6,1.343c-4.9,1.415-9.826,2.773-14.785,3.962a147.782,147.782,0,0,1-23.4,3.872q-2.632.2-5.274.193a87.623,87.623,0,0,1-17.973-1.976,124.328,124.328,0,0,1-17.4-5.085q-1.269-.468-2.537-.965-1.649-.647-3.292-1.343a105.459,105.459,0,0,1-12.759-6.423,73.173,73.173,0,0,1-16.007-12.631,41.92,41.92,0,0,1-3.057-3.663c-.331-.442-.651-.89-.965-1.343a56.839,56.839,0,0,1-6.484-12.836,82.937,82.937,0,0,1-2.883-9.881c-.1-.448-.2-.895-.295-1.343-.667-3.116-1.18-6.243-1.575-9.319-.551-4.289-.938-8.624-1.133-12.97h375.186a33.619,33.619,0,0,1,1.929,4.511A50.878,50.878,0,0,1,4694.615,2370.219Z" transform="translate(-1.246 -1904.092)" fill="#f7ccba"/>
    <g id="Group_177187" data-name="Group 177187" transform="translate(4335.128 318.687)">
      <path id="Path_39202" data-name="Path 39202" d="M4777.464,1143.559s-5.275,3.956-3.768,16.069,10.4,23.567,11.152,25.827,3.617,11.152,1.507,18.386,1.356,16.126,5.274,17.783,9.043-4.37,8.139-13.413-.242-17.123,1.808-21.7c6.782-15.146-4.973-27.278-9.495-32.4S4783.341,1140.846,4777.464,1143.559Z" transform="translate(-4746.8 -1143.019)" fill="#6dc6af"/>
      <path id="Path_39203" data-name="Path 39203" d="M5028.8,1360.452s-2.411-4.672-9.645-1.808-15.146,17.633-16.917,29.237-5.238,11.152-6.594,18.688,3.693,12.358,6.594,12.057,11.792-5.576,10.737-18.386.6-16.578,6.48-20.647S5031.818,1367.083,5028.8,1360.452Z" transform="translate(-4945.503 -1335.188)" fill="#89efd2"/>
      <path id="Path_39204" data-name="Path 39204" d="M4524.336,1292.205c-4.622,2.433-8.139,8.59,1.206,20.044s8.44,9.042,9.645,16.879,1.658,12.659,6.933,17.18,9.8,4.37,11.905,9.495,7.385,1.206,6.933-1.356,3.767-9.042-7.083-25.017-8.981-15.071-9.916-20.948S4535.79,1286.177,4524.336,1292.205Z" transform="translate(-4519.667 -1275.381)" fill="#89efd2"/>
      <g id="Group_177184" data-name="Group 177184" transform="translate(9.368 22.695)">
        <path id="Path_39205" data-name="Path 39205" d="M4647.657,1450.764a.942.942,0,0,1-.941-.908c-.986-27-34.682-84.924-37.395-88.815a.937.937,0,0,1-.3-.417.95.95,0,0,1,1.234-1.24c.338.136.419.169,2.2,3.151,1.2,2.017,2.718,4.644,4.263,7.4,3.084,5.494,7.8,14.157,12.735,24.229,8.436,17.207,18.605,40.825,19.146,55.627a.942.942,0,0,1-.907.976Zm-36.865-90.783a0,0,0,0,0,0,0A0,0,0,0,1,4610.792,1359.981Z" transform="translate(-4608.953 -1359.316)" fill="#6dc6af"/>
      </g>
      <g id="Group_177185" data-name="Group 177185" transform="translate(50.07 27.939)">
        <path id="Path_39206" data-name="Path 39206" d="M4997.808,1493.238c-.03,0-.061,0-.092,0a.941.941,0,0,1-.847-1.028c3.514-36.317,9.629-56.8,14.141-67.582,4.96-11.859,9.122-15.017,9.3-15.145a.942.942,0,0,1,1.121,1.514c-.056.042-4.057,3.176-8.827,14.711-4.409,10.664-10.393,30.89-13.856,66.684A.942.942,0,0,1,4997.808,1493.238Z" transform="translate(-4996.865 -1409.294)" fill="#6dc6af"/>
      </g>
      <g id="Group_177186" data-name="Group 177186" transform="translate(38.089 13.697)">
        <path id="Path_39207" data-name="Path 39207" d="M4893.884,1374.007a.941.941,0,0,1-.868-.575c-.906-2.141-2.578-11.588-3.362-23.755-.671-10.424-.853-25.524,2.094-38.266a40.914,40.914,0,0,0-2.388-26.674,33.643,33.643,0,0,0-6.384-9.55.942.942,0,0,1,1.294-1.369,34.78,34.78,0,0,1,6.764,10.05,42.763,42.763,0,0,1,2.55,27.967c-5.448,23.559-.323,57.342,1.167,60.863a.942.942,0,0,1-.867,1.309Z" transform="translate(-4882.683 -1273.561)" fill="#89efd2"/>
      </g>
    </g>
    <g id="Group_177188" data-name="Group 177188" transform="translate(4316.35 467.549)">
      <path id="Path_39208" data-name="Path 39208" d="M4463.368,2561.784v1.343H4340.992c-.1-.448-.2-.895-.3-1.343Z" transform="translate(-4340.696 -2561.784)" fill="#e5b5a3"/>
    </g>
    <g id="Group_177189" data-name="Group 177189" transform="translate(4326.011 491.61)">
      <path id="Path_39209" data-name="Path 39209" d="M4551.8,2791.1v1.343H4433.741c-.331-.441-.651-.89-.965-1.343Z" transform="translate(-4432.776 -2791.096)" fill="#e5b5a3"/>
    </g>
    <g id="Group_177190" data-name="Group 177190" transform="translate(4565.891 467.549)">
      <path id="Path_39210" data-name="Path 39210" d="M6846.46,2561.784c-.012.448-.028.895-.05,1.343H6719v-1.343Z" transform="translate(-6719 -2561.784)" fill="#e5b5a3"/>
    </g>
    <g id="Group_177191" data-name="Group 177191" transform="translate(4553.567 491.585)">
      <path id="Path_39211" data-name="Path 39211" d="M6734.95,2790.856c-.271.47-.555.935-.849,1.394H6601.544v-1.394Z" transform="translate(-6601.544 -2790.856)" fill="#e5b5a3"/>
    </g>
    <g id="Group_177192" data-name="Group 177192" transform="translate(4401.721 444.893)">
      <rect id="Rectangle_162939" data-name="Rectangle 162939" width="1.343" height="28.737" transform="translate(0 0.734) rotate(-33.148)" fill="#e5b5a3"/>
    </g>
    <g id="Group_177193" data-name="Group 177193" transform="translate(4366.681 423.199)">
      <path id="Path_39212" data-name="Path 39212" d="M4859.742,2139.094v22.628a13.437,13.437,0,0,1-13.437,13.438h-12.567a13.441,13.441,0,0,1-13.354-13.437v-22.628Z" transform="translate(-4820.383 -2139.094)" fill="#d2dfff"/>
      <path id="Path_39213" data-name="Path 39213" d="M4895.405,2175.159a14.4,14.4,0,0,1-6.943-12.325v-23.74h-6.936v23.74a14.41,14.41,0,0,0,6.939,12.325Z" transform="translate(-4875.111 -2139.094)" fill="#f8f0e3"/>
    </g>
    <g id="Group_177194" data-name="Group 177194" transform="translate(4452.428 273.489)">
      <path id="Path_39214" data-name="Path 39214" d="M5660.167,725.231c-.086-.026-6.011-13.046-6.2-12.984-7.462,2.468-12.451,5.714-16.346,11.543-.042.029.5,5.772.482,5.81a30.183,30.183,0,0,0,4.226,1.56C5648.863,733.388,5654.967,728.949,5660.167,725.231Zm-6.136-12.881-.057.037-.03-.062Zm6.027,12.933-.022-.049.042-.029Z" transform="translate(-5637.617 -712.247)" fill="#fbaf83"/>
    </g>
    <g id="Group_177195" data-name="Group 177195" transform="translate(4462.874 319.964)">
      <path id="Path_39215" data-name="Path 39215" d="M5774.383,1160.738a.062.062,0,0,0-.041-.039l-20.124-5.51a.06.06,0,0,0-.072.037c-.947,2.528-1.891,5.055-2.944,7.489-.113.262-.227.522-.343.781a47.522,47.522,0,0,1-3.25,6.168,46.259,46.259,0,0,1-4.681,6.055c-1.705,1.9-3.522,3.714-5.338,5.527a.055.055,0,0,0-.018.035l0,.022a35.253,35.253,0,0,0-.395,4.432,9.238,9.238,0,0,0,.444,3.054,8.265,8.265,0,0,0,1.815,2.842,29.246,29.246,0,0,0,2.627,2.4.053.053,0,0,0,.037.015l10.7.311a.052.052,0,0,0,.027-.007l10.843-4.979a.067.067,0,0,0,.035-.059c-.025-.693-.05-1.387-.05-2.124a26.917,26.917,0,0,1,.448-4.937,44.522,44.522,0,0,1,3.056-9.858c.154-.342.312-.685.477-1.024a47.732,47.732,0,0,1,3.125-5.412c1.148-1.748,2.38-3.455,3.611-5.162A.061.061,0,0,0,5774.383,1160.738Zm-36.693,20.58-.014.013.017-.035Zm4.414,12.606h.023l.015.013Zm12.156-38.656c-.006.019-.014.035-.021.054l-.051-.015Zm-1.48,38.971.015-.007h.012Zm10.807-4.924c0-.013,0-.025,0-.038l.039-.019Zm10.642-28.522.05-.07.034.094Z" transform="translate(-5737.176 -1155.187)" fill="#fbaf83"/>
    </g>
    <path id="Path_39216" data-name="Path 39216" d="M5891.106,1160.793c-1.23,1.707-2.463,3.415-3.611,5.162a47.88,47.88,0,0,0-3.125,5.412c-.165.339-.322.682-.477,1.024-10.01.774-14.4-4.078-16.3-8.9q.174-.388.343-.781c1.054-2.434,2-4.961,2.944-7.489a.06.06,0,0,1,.072-.037l20.123,5.51a.063.063,0,0,1,.041.039A.061.061,0,0,1,5891.106,1160.793Z" transform="translate(-1391.034 -835.224)" fill="#da8d5e"/>
    <g id="Group_177196" data-name="Group 177196" transform="translate(4462.441 256.414)">
      <path id="Path_39217" data-name="Path 39217" d="M6300.673,713.757l-.009-.005.028.06c0-.013,0-.027.005-.04Z" transform="translate(-6241.107 -696.519)"/>
      <path id="Path_39218" data-name="Path 39218" d="M5799.256,577.215a13.616,13.616,0,0,1-.925,4.565c-.4,1.131-.915,2.345-1.484,3.6s-1.187,2.545-1.81,3.838c.075,5.221.146,10.492-8.638,11.6-.633.079-1.312.138-2.035.176s-1.485.057-2.29.057a134.735,134.735,0,0,1-17.7-1.612c-6.82-.967-14.327-2.256-21.831-3.544a.064.064,0,0,1-.04-.027,118.081,118.081,0,0,1-6.138-10.11c-1.742-3.329-3.319-7.022-3.319-10.785q0-.549.045-1.1a16.6,16.6,0,0,1,1.815-6.017,19.161,19.161,0,0,1,3.366-4.732,11.479,11.479,0,0,1,3.588-2.5,11.721,11.721,0,0,1,3.283-.858,16.368,16.368,0,0,1,1.966-.117,27.379,27.379,0,0,1,3.2.232,14.163,14.163,0,0,1,1.591-5.162,8.741,8.741,0,0,1,2.146-2.436,11.449,11.449,0,0,1,3.732-1.88,20.093,20.093,0,0,1,3.025-.663,23.283,23.283,0,0,1,3.274-.238,17.8,17.8,0,0,1,2.218.131,10.843,10.843,0,0,1,1.945.415,6.662,6.662,0,0,1,3.156,2.119,15.627,15.627,0,0,1,1.815,2.938,11.841,11.841,0,0,1,3.551-2.6,8.341,8.341,0,0,1,1.872-.515,13.247,13.247,0,0,1,2.124-.159q.582,0,1.185.04a14.091,14.091,0,0,1,3,.487,9.906,9.906,0,0,1,3.01,1.435,12.594,12.594,0,0,1,2.714,2.684,11.908,11.908,0,0,1,1.813,3.393,10.413,10.413,0,0,1,.473,3.238,28,28,0,0,1-.317,3.65l-.025-.015-.009,0,.029.06c0-.013,0-.027,0-.04a21.756,21.756,0,0,1,1.879,1.241,10.491,10.491,0,0,1,1.855,1.785,14.084,14.084,0,0,1,1.67,2.651,12.528,12.528,0,0,1,1.057,3.082A9.114,9.114,0,0,1,5799.256,577.215Z" transform="translate(-5733.048 -549.512)" fill="#0f2149"/>
    </g>
    <g id="Group_177197" data-name="Group 177197" transform="translate(4472.776 272.181)">
      <path id="Path_39219" data-name="Path 39219" d="M5881.223,720.641c0,7.6-2,17.54-5.766,24.47a28.392,28.392,0,0,1-7.356,8.8,26.246,26.246,0,0,1-8.24,4.405,20.222,20.222,0,0,1-6.174,1,18.673,18.673,0,0,1-3.813-.4,22.638,22.638,0,0,1-3.611-1.083,22.009,22.009,0,0,1-5.526-3.065,18.075,18.075,0,0,1-4.394-4.894,28.431,28.431,0,0,1-2.869-6.774,49.039,49.039,0,0,1-1.489-7.135,50.009,50.009,0,0,1-.441-6.781c0-1.561.059-3.039.118-4.514v-.015a65.185,65.185,0,0,1,.987-8.788,18.319,18.319,0,0,1,3.287-7.662,19.565,19.565,0,0,1,7.18-5.488,31.494,31.494,0,0,1,9.87-2.721,36.028,36.028,0,0,1,4.022-.222,37.9,37.9,0,0,1,7.62.774,32.6,32.6,0,0,1,4.36,1.212,24.987,24.987,0,0,1,3.829,1.726,15.1,15.1,0,0,1,5.983,5.768,20.92,20.92,0,0,1,2.374,9.42Q5881.224,719.633,5881.223,720.641Z" transform="translate(-5831.544 -699.784)" fill="#fbaf83"/>
    </g>
    <g id="Group_177198" data-name="Group 177198" transform="translate(4470.119 269.019)">
      <path id="Path_39220" data-name="Path 39220" d="M5955.034,823.4l.025.015.037.024c.008-.024.018-.045.027-.069Zm-13.354.536.058-.037-.087-.025C5941.661,823.892,5941.671,823.914,5941.681,823.934Zm-11.429.433c.042.029.082.057.124.084-.01-.049-.022-.1-.032-.146Zm-8.164,9.215.119.017-.059-.106Z" transform="translate(-5909.931 -807.239)"/>
      <path id="Path_39221" data-name="Path 39221" d="M5860.784,693.605a15.726,15.726,0,0,1-1.254,4.063c-.614,1.407-.876,3.611-1.633,5.051a.06.06,0,0,1-.071.03.061.061,0,0,1-.043-.062c.146-2.523-.205-5.805-.205-7.8,0-.216,0-.425,0-.628a11.7,11.7,0,0,0-.28-2.664,5.107,5.107,0,0,0-1.055-2.065,11.69,11.69,0,0,0-2.122-1.88c-.838-.606-1.778-1.205-2.727-1.8a12.647,12.647,0,0,1-1.869,3.6,4.341,4.341,0,0,1-1.477,1.113,6.173,6.173,0,0,1-2.062.5c-.279.023-.573.037-.875.037a10.554,10.554,0,0,1-2.223-.233,6.713,6.713,0,0,1-2.033-.769,5.651,5.651,0,0,1-1.714-1.686,17.429,17.429,0,0,1-1.164-2.073,13.955,13.955,0,0,1-4.674,2.3,6.157,6.157,0,0,1-1.1.1,8.011,8.011,0,0,1-1.755-.208,10.851,10.851,0,0,1-1.492-.457,9.756,9.756,0,0,1-1.386-.65c-.331-.188-.618-.376-.9-.566a10.312,10.312,0,0,1,.247,2.115c.006.181.01.378.01.586a7.935,7.935,0,0,1-.786,3.8,5.144,5.144,0,0,1-1.612,1.7,6.72,6.72,0,0,1-2.088.935,7.071,7.071,0,0,1-1.76.208A16.476,16.476,0,0,1,5818.5,696a8.273,8.273,0,0,1,1.392,4.749,11.885,11.885,0,0,1-.745,3.4,11.408,11.408,0,0,1-1.69,3.123,7.441,7.441,0,0,1-2.283,1.892,18.467,18.467,0,0,1-2.557,1.09.06.06,0,0,1-.077-.032c-.467-1.037-.932-2.078-1.349-3.139a23.814,23.814,0,0,1-1.042-3.269,13.892,13.892,0,0,1-.39-3.213c0-1.427-4.071-3.708-3.476-5.652a41.181,41.181,0,0,1,1.781-5.9c.98-2.166,3.023-9.164,3.023-9.164s9.929-7.078,9.942-7.079l20.226-3.144c2.183-.252,9.589,2.194,10.382,2.3,1.331.186,4.779,7.974,5.872,8.521a.062.062,0,0,1,.03.035l1.94,6.018C5860.3,688.776,5861.133,691.027,5860.784,693.605Z" transform="translate(-5806.224 -669.643)" fill="#0f2149"/>
    </g>
    <g id="Group_177199" data-name="Group 177199" transform="translate(4502.887 305.071)">
      <path id="Path_39222" data-name="Path 39222" d="M6121.883,1013.335h0c-.6,1.411-1.181,2.788-.666,4.022h0a7.06,7.06,0,0,0,1.468,1.915h0a7.4,7.4,0,0,1,1.267,1.574h0a1.841,1.841,0,0,1-.816,2.572h0a2.223,2.223,0,0,1-.253.108h0c-1.086.388-2.709.039-4.3-.3a.061.061,0,1,1,.025-.119h0c1.61.343,3.192.679,4.238.305h0a2.056,2.056,0,0,0,.239-.1h0a1.721,1.721,0,0,0,.763-2.409h0a7.314,7.314,0,0,0-1.247-1.545h0a7.163,7.163,0,0,1-1.492-1.952h0c-.539-1.29.073-2.72.666-4.116a.061.061,0,0,1,.08-.032A.06.06,0,0,1,6121.883,1013.335Z" transform="translate(-6118.53 -1013.251)" fill="#da8d5e" stroke="#da8d5e" stroke-linecap="round" stroke-linejoin="round" stroke-width="12.8"/>
    </g>
    <g id="Group_177200" data-name="Group 177200" transform="translate(4489.203 314.858)">
      <path id="Path_39223" data-name="Path 39223" d="M5988.146,1107.381h0c1.722-.562,3.474-1.136,4.788-.71h0a2.527,2.527,0,0,1,.333.134h0c1.3.637,2.052,2.463,2.651,3.906h0l.063.152h0c.616,1.48,1.083,2.5,1.949,3.048h0a3.167,3.167,0,0,0,.712.324h0a11.145,11.145,0,0,0,2.732.357.062.062,0,0,1,.058.064.061.061,0,0,1-.064.057h0a11.251,11.251,0,0,1-2.763-.363h0a3.29,3.29,0,0,1-.74-.337h0c-.9-.568-1.383-1.634-2-3.1h0l-.063-.152h0c-.606-1.46-1.346-3.232-2.593-3.844h0a2.445,2.445,0,0,0-.316-.128h0c-1.269-.41-2.976.144-4.713.71a.061.061,0,1,1-.038-.115Z" transform="translate(-5988.104 -1106.523)" fill="#da8d5e" stroke="#da8d5e" stroke-linecap="round" stroke-linejoin="round" stroke-width="12.8"/>
    </g>
    <g id="Group_177201" data-name="Group 177201" transform="translate(4372.688 281.344)">
      <path id="Path_39224" data-name="Path 39224" d="M5068.513,932.567a24.746,24.746,0,0,1-.18,3.06,21.551,21.551,0,0,1-7.005,13.157c-3.679,3.527-8.382,6.39-13.165,9.168l-1.662.96-1.657.96c-.839.487-1.665.97-2.5,1.459a136.188,136.188,0,0,1-14.933,7.932,55.486,55.486,0,0,1-17.405,4.5c-1.711.149-3.482.222-5.293.222-13.177,0-28.459-3.858-37.927-10.23a35.413,35.413,0,0,1-3.085-2.328,34.183,34.183,0,0,1-2.654-2.495,37.947,37.947,0,0,1-6.6-9.591c-.146-.3-.287-.593-.424-.888a79.572,79.572,0,0,1-3.3-8.533q-.138-.41-.273-.811c-.091-.272-.171-.51-.26-.776-.361-1.071-.707-2.083-1.041-3.047s-.653-1.882-.962-2.765c-.794-2.278-1.5-4.293-2.1-6.18s-1.1-3.65-1.494-5.416c-.386-1.746-.665-3.5-.887-5.327s-.382-3.725-.537-5.762c-.059-.786-.12-1.617-.18-2.449-.064-.885-.133-1.823-.205-2.77a65.735,65.735,0,0,0-1.451-10.563,32.6,32.6,0,0,0-4.969-11.261c-.559-.8-1.17-1.591-1.825-2.375s-1.356-1.563-2.092-2.33a82.925,82.925,0,0,0-9.055-7.981c-.107-.084-.215-.166-.322-.248-3.14-2.421-6.361-4.689-9.324-6.764l-1.061-.742c-3.633-2.54-6.87-4.8-9.846-7.11a73.831,73.831,0,0,1-8.283-7.361l-.078-.081a82.632,82.632,0,0,1-7.613-9.395,99.135,99.135,0,0,1-5.9-9.477c-2.014-3.713-3.332-6.829-3.332-9.89a10.942,10.942,0,0,1,1.393-5.27,28.706,28.706,0,0,1,6.6-7.63,60.273,60.273,0,0,1,10.009-6.89,70.313,70.313,0,0,1,11.187-4.911,114.691,114.691,0,0,1,12.022-3.337c.2-.045.4-.091.6-.134,1.789-.4,3.605-.772,5.422-1.12,2.219-.425,4.437-.807,6.6-1.14q.675-.1,1.339-.2h0c2.045-.3,4.032-.552,5.923-.752,1.484-.156,2.908-.28,4.249-.369,1.927-.128,3.685-.18,5.32-.18a101.46,101.46,0,0,1,10.934.69.065.065,0,0,1,.049.032c.6,1.138,1.2,2.28,1.686,3.389a13.559,13.559,0,0,1,1.042,3.2,7.761,7.761,0,0,1,.1,1.273,14.282,14.282,0,0,1-.831,4.22l-.007.018a.06.06,0,0,1-.023.034h0c-1.552,1.056-3.1,2.114-4.7,3.144s-3.23,2.035-4.949,2.985c-.8.445-1.628.878-2.466,1.3q-1.43.723-2.915,1.412-1.528.713-3.105,1.4-1.3.569-2.618,1.13c-1.162.5-2.335.987-3.5,1.464-.786.322-1.568.638-2.34.942-1.244.49-2.461.952-3.623,1.366q-.942.337-1.83.631c-1.689.557-3.217.987-4.664,1.351s-2.812.663-4.177.964h0l-7.827,1.622c2.532,1.378,5.065,2.76,7.436,4.237.66.411,1.31.831,1.976,1.271.8.531,1.623,1.086,2.53,1.7.549.371,1.126.762,1.746,1.178s1.279.856,1.991,1.326c1.788,1.182,3.912,2.555,6.118,3.969s4.5,2.867,6.621,4.215l0,0,1.006.638c1.907,1.21,3.685,2.337,5.378,3.423s3.307,2.134,4.889,3.186c.265.176.527.349.789.525,1.576,1.053,3.111,2.077,4.577,2.9a14.373,14.373,0,0,0,4.155,1.7,7.322,7.322,0,0,0,1.383.133,8.5,8.5,0,0,0,2.61-.437,23.485,23.485,0,0,0,3.521-1.576.061.061,0,0,1,.078.02c1.208,1.759,2.415,3.519,3.7,5.248a29.552,29.552,0,0,0,2.3,2.805,13.36,13.36,0,0,0,2.132,1.832,10.308,10.308,0,0,0,5.749,1.816c.185,0,.371-.005.559-.017a10.823,10.823,0,0,0,3.457-.818,11.826,11.826,0,0,0,3.114-1.884,14.66,14.66,0,0,0,2.428-2.691c.717-.992,1.363-2.053,2.013-3.119a.064.064,0,0,1,.03-.025,15.63,15.63,0,0,1,2.1-.66c.168-.039.346-.077.536-.116a32.958,32.958,0,0,1,3.339-.448c.814-.074,1.751-.141,2.767-.2.849-.054,1.754-.1,2.689-.153s1.9-.1,2.869-.144c.991-.049,1.986-.1,2.96-.149s1.925-.1,2.829-.16c.178-.01.395-.025.567-.035,1.13-.072,2.189-.141,3.207-.141a12.044,12.044,0,0,1,8.531,3.107,27.151,27.151,0,0,1,2.124,2.015,73.055,73.055,0,0,1,5.473,6.64c1.86,2.49,3.724,5.159,5.5,7.711l.433.626.426.613.353.509c2.167,3.119,4.189,6.027,6.4,9.594s4.62,7.795,7.561,13.553C5061.059,904.254,5068.513,920.587,5068.513,932.567Z" transform="translate(-4877.64 -787.112)" fill="#fec241"/>
    </g>
    <path id="Path_39225" data-name="Path 39225" d="M5808.475,1871.344c1.235.586,17.476,2.241,34.725-12.375s5.234-34.714,23.345-42.195,39.737,4.281,39.737,4.281l8.37,23.487-47.05,33.745-38.073,2.494Z" transform="translate(-1338.12 -1425.166)" fill="#e39d2d"/>
    <path id="Path_39226" data-name="Path 39226" d="M5949.051,2036.758l-20.53-3.814v-4.529l19.767,3.88Z" transform="translate(-1445.57 -1616.829)" fill="#80a0d8"/>
    <path id="Path_39227" data-name="Path 39227" d="M5949.051,1988.022l-20.53-4.172,25.285-5.224-1.8,5.858Z" transform="translate(-1445.57 -1572.264)" fill="#d2dfff"/>
    <g id="Group_177202" data-name="Group 177202" transform="translate(4555.046 467.279)">
      <path id="Path_39228" data-name="Path 39228" d="M6615.763,2559.278h0a.061.061,0,0,1-.119-.025h0a.061.061,0,0,1,.119.024Z" transform="translate(-6615.642 -2559.205)"/>
    </g>
    <g id="Group_177203" data-name="Group 177203" transform="translate(4426.769 412.986)">
      <path id="Path_39229" data-name="Path 39229" d="M5563.482,2084.13a69.276,69.276,0,0,0-3.846-17.862c-2.089-6.3-4.781-12.856-7.471-19.41a.057.057,0,0,0-.039-.035l-17.162-5.06a.059.059,0,0,0-.062.018l-.062.071c-15.218,17.886-30.413,35.706-47.467,35.706-.312,0-.628-.007-.942-.019a27.72,27.72,0,0,1-4.269-.515,51.676,51.676,0,0,1-13.551-5.145c-4.555-2.374-9.112-5.228-13.586-8.03-3.727-2.333-7.393-4.63-10.949-6.581a51.84,51.84,0,0,0-10.274-4.5q-1.2-.345-2.374-.576a25.564,25.564,0,0,0-4.957-.494c-12.081,0-21.291,8.987-26.737,18.609a51.544,51.544,0,0,0-6.669,25.227,44.955,44.955,0,0,0,.687,7.939,37.37,37.37,0,0,0,4.368,12,81.864,81.864,0,0,0,7.064,10.1,75.349,75.349,0,0,0,8.805,9.878,28.89,28.89,0,0,0,11.894,6.708q.842.224,1.719.4a38.416,38.416,0,0,0,7.41.655c7.743,0,16.578-1.743,25.212-3.646,2.983-.658,5.934-1.335,8.849-2,2.822-.646,5.6-1.282,8.32-1.882,3.015-.665,5.953-1.284,8.783-1.82s5.554-.989,8.139-1.319c1.635-.21,3.215-.371,4.759-.507s3.051-.247,4.54-.358c1.415-.1,2.815-.208,4.213-.331s2.8-.264,4.2-.445c1.6-.2,3.215-.46,4.87-.8s1.061-3.74,2.817-4.264c4.929-1.472,3.331-11.883,13.172-15.834,5.523-2.218,30.64-13.816,30.64-24.017Q5563.529,2085.073,5563.482,2084.13Zm-11.389-37.19-.03-.008-.01-.027Zm-17.1-5.08-.025.03-.039-.012Z" transform="translate(-5393.064 -2041.76)" fill="#3a6beb"/>
    </g>
    <g id="Group_177204" data-name="Group 177204" transform="translate(4523.444 424.627)">
      <path id="Path_39230" data-name="Path 39230" d="M6399.488,2158.645a13.492,13.492,0,0,0-4.93-4.21,16.318,16.318,0,0,0-6.587-1.71,18.579,18.579,0,0,0-2.661.064,29.547,29.547,0,0,0-8.891,2.577c-3.027,1.333-6.109,3.034-9.2,4.785s-6.214,3.557-9.476,5.676a116.807,116.807,0,0,0-10.359,7.563,146.014,146.014,0,0,0-11.4,10.4,107.9,107.9,0,0,0-10.123,11.708c-5.676,7.766-8.545,14.971-11.411,22.17a.06.06,0,0,0,.028.077,43.3,43.3,0,0,0,5.921,2.538,30.968,30.968,0,0,0,8.2,1.43q.881.043,1.835.052h.441a72.123,72.123,0,0,0,29.356-6.607,68.889,68.889,0,0,0,13.814-9.061,142.8,142.8,0,0,0,11.468-10.769,131.361,131.361,0,0,0,9.164-10.231,39.755,39.755,0,0,0,5.849-9.634,21.557,21.557,0,0,0,1.585-7.931A15.3,15.3,0,0,0,6399.488,2158.645Zm-84.927,59.063-.03-.077.05.025Z" transform="translate(-6314.445 -2152.702)" fill="#3a6beb"/>
    </g>
    <g id="Group_177205" data-name="Group 177205" transform="translate(4525.346 429.956)">
      <path id="Path_39231" data-name="Path 39231" d="M6333.336,2248.944a.755.755,0,0,1-.713-1c2.383-6.841,12.023-16.391,28.652-28.385,12.318-8.885,24.1-15.886,24.222-15.956a.755.755,0,1,1,.77,1.3c-.467.277-46.751,27.845-52.216,43.537A.756.756,0,0,1,6333.336,2248.944Z" transform="translate(-6332.581 -2203.494)" fill="#0f2149"/>
    </g>
    <g id="Group_177206" data-name="Group 177206" transform="translate(4491.116 409.104)">
      <path id="Path_39232" data-name="Path 39232" d="M6055.679,2015.212c-.175-.055-.356-.107-.542-.158-4.531-1.226-12.847-1.426-21.887-1.426-2.172,0-4.387.012-6.6.024a.044.044,0,0,0-.015,0,27.645,27.645,0,0,1-5.234,1.069,1.992,1.992,0,0,1-.507-.054c-.223-.061-.337-.168-.337-.346a.542.542,0,0,1,.022-.148c.006-.02.012-.04.021-.062a4.454,4.454,0,0,1,.767-1.138c.384-.46.873-.987,1.385-1.543.607-.656,1.249-1.348,1.783-2a6.733,6.733,0,0,0,1.14-1.78c.021-.064.04-.124.056-.185a1.38,1.38,0,0,0,.04-.315c0-.693-.638-1.09-1.564-1.34a12.444,12.444,0,0,0-1.662-.3c-.618-.077-1.286-.138-1.97-.2-.371-.033-.75-.067-1.126-.1-.467-.047-.934-.1-1.4-.149s-.91-.1-1.358-.144c-.894-.089-1.768-.155-2.6-.155a8.421,8.421,0,0,0-3.6.663,6.638,6.638,0,0,0-2.906,2.837,10.15,10.15,0,0,0-1.219,4.422q-.015.3-.015.6a11.908,11.908,0,0,0,3.328,8.434,8.114,8.114,0,0,0,1.819,1.277,10.574,10.574,0,0,0,2.149.823,17.067,17.067,0,0,0,2.641.475c.932.1,1.914.141,2.938.148l.294,0a70.609,70.609,0,0,0,12.374-1.264c.888-.166,1.758-.343,2.616-.517.843-.173,1.674-.343,2.508-.5a35.655,35.655,0,0,1,6.671-.7c.145,0,.291,0,.437,0a45.917,45.917,0,0,1,7.133.784c2.507.443,5.11,1.021,7.717,1.6a.061.061,0,0,0,.071-.042,14.623,14.623,0,0,0,.833-4.021C6059.872,2017.885,6058.94,2016.228,6055.679,2015.212Zm3.245,8.557c0-.017.01-.035.015-.052l.055.012Z" transform="translate(-6006.344 -2004.76)" fill="#fbaf83"/>
    </g>
    <g id="Group_177207" data-name="Group 177207" transform="translate(4490.356 408.032)">
      <path id="Path_39233" data-name="Path 39233" d="M6017.143,2016.515c-4.931,0-11.313-.794-13.824-2.851-3.638-2.982-4.187-9.2-4.208-9.468a.12.12,0,0,0,0-.019,10.382,10.382,0,0,1,3.608-8.018c3.853-3.24,13.157-.634,13.552-.521a.755.755,0,1,1-.414,1.453c-2.473-.7-9.477-2.037-12.165.224a8.94,8.94,0,0,0-3.073,6.768c.026.277.583,5.891,3.659,8.412s14.535,3.034,17.959,2.071a.755.755,0,1,1,.409,1.454A23.449,23.449,0,0,1,6017.143,2016.515Z" transform="translate(-5999.104 -1994.541)" fill="#e39d2d"/>
    </g>
    <g id="Group_177208" data-name="Group 177208" transform="translate(4528.839 389.459)">
      <path id="Path_39234" data-name="Path 39234" d="M6439.17,1840.608q-.226-.123-.474-.237a18.143,18.143,0,0,0-3.313-1.084c-1.266-.309-2.671-.583-4.153-.871-1.9-.369-3.922-.762-5.948-1.286a34.665,34.665,0,0,1-5.964-2.068c-.655-.306-1.3-.64-1.918-1.006a19.579,19.579,0,0,1-1.8-1.2,24.758,24.758,0,0,1-3.68-3.507c-1.128-1.288-2.176-2.657-3.194-3.99-.915-1.2-1.809-2.365-2.718-3.42a18.657,18.657,0,0,0-2.817-2.731,7.5,7.5,0,0,0-4.583-1.682c-.159,0-.319.005-.482.017-.187.013-.379.034-.572.062-3.762.559-8.558,4.141-13.866,9.233s-11.131,11.689-16.945,18.279a.062.062,0,0,0-.014.054,23.86,23.86,0,0,1,.945,5.536c0,.218-.009.435-.024.65a10.246,10.246,0,0,1-.632,2.755c-.324.886-.732,1.748-1.143,2.614a.061.061,0,0,0,0,.052.064.064,0,0,0,.041.034c1.381.353,2.763.705,4.2,1.094s2.926.818,4.524,1.321,3.306,1.083,5.106,1.733,3.7,1.368,5.68,2.152c.346.138.7.279,1.053.42.212.084.425.17.64.254l.448.178c1.683.666,3.438,1.341,5.3,1.932q.3.1.6.186a40.02,40.02,0,0,0,5.326,1.252q1.109.179,2.269.294h0c1.424.143,2.894.213,4.392.213.928,0,1.866-.027,2.811-.082.206-.01.414-.024.622-.039,1.1-.076,2.208-.188,3.313-.337s2.207-.333,3.3-.552a52.535,52.535,0,0,0,8.194-2.362,47.346,47.346,0,0,0,7.193-3.421,30.3,30.3,0,0,0,5.691-4.225,21.324,21.324,0,0,0,4.037-5.266,12.742,12.742,0,0,0,1.741-5.79A5.554,5.554,0,0,0,6439.17,1840.608Zm-72.337,4.59.014-.054c0,.01,0,.02.007.03Zm-.85,11.582-.038-.084.07.018C6366,1856.736,6365.993,1856.758,6365.983,1856.779Z" transform="translate(-6365.868 -1817.528)" fill="#fec241"/>
    </g>
    <g id="Group_177209" data-name="Group 177209" transform="translate(4542.204 492.14)">
      <path id="Path_39235" data-name="Path 39235" d="M6517.021,2803.878l-18.727-7.721a.06.06,0,0,0-.047,0,.066.066,0,0,0-.034.034l-4.968,12.373a.062.062,0,0,0,.03.079l13.428,6.048a.053.053,0,0,0,.033.005l8.631-1.338a.057.057,0,0,0,.05-.049l1.641-9.364A.066.066,0,0,0,6517.021,2803.878Zm-18.7-7.642-.023.057-.055-.023Zm-4.967,12.373-.032-.077.054.023Zm13.359,5.966.018,0,.016.009Zm8.581-1.288.006-.042.044-.006Zm1.629-9.315.009-.049.037.067Z" transform="translate(-6493.241 -2796.152)" fill="#fbaf83"/>
    </g>
    <g id="Group_177210" data-name="Group 177210" transform="translate(4553.423 490.542)">
      <path id="Path_39236" data-name="Path 39236" d="M6646.424,2785.527c-1.158-3.1-4.717-4.607-9.831-4.607-.516,0-1.044.015-1.59.045a46.5,46.5,0,0,0-4.87.569c-1.7.277-3.44.628-5.162,1s-3.437.781-5.053,1.162c-1.449.343-2.82.667-4.068.938-2.7.589-4.81.935-6.622,1.158s-3.329.324-4.848.425a.061.061,0,0,0-.05.088c1.242,2.506,2.471,4.989,2.471,7.21a5.2,5.2,0,0,1-.172,1.357c-.013.044-.024.087-.037.129a8.3,8.3,0,0,1-2.408,3.463,42.44,42.44,0,0,1-3.974,3.161l-.017.012a.06.06,0,0,0-.014.084,3.913,3.913,0,0,0,.8.87,15.429,15.429,0,0,0,2.283,1.445,40.142,40.142,0,0,0,4.872,2.258,34.848,34.848,0,0,0,7.04,1.916,36.624,36.624,0,0,0,16.414-1.261,23.594,23.594,0,0,0,6.7-3.44,21.548,21.548,0,0,0,5.007-5.253,23.7,23.7,0,0,0,1.7-2.956,21.069,21.069,0,0,0,1.216-3.1,14.15,14.15,0,0,0,.651-4.011A7.619,7.619,0,0,0,6646.424,2785.527Zm-42.035.816.051-.087c.014.027.026.055.04.082Zm-4.108,15.385-.015.012.014-.084c.012.017.023.032.033.049C6600.3,2801.712,6600.291,2801.719,6600.28,2801.727Z" transform="translate(-6600.168 -2780.92)" fill="#0f2149"/>
    </g>
    <g id="Group_177211" data-name="Group 177211" transform="translate(4484.04 499.572)">
      <path id="Path_39237" data-name="Path 39237" d="M5991.037,2872.465a3.292,3.292,0,0,1-.127.925,13.181,13.181,0,0,1-2.767,4.892,13.716,13.716,0,0,1-4.489,3.4c-.315.146-.636.277-.962.4a19.77,19.77,0,0,1-2.42.7c-.823.188-1.656.343-2.488.5s-1.669.311-2.491.5a19.924,19.924,0,0,0-2.421.7c-.974.361-1.941.771-2.9,1.207s-1.922.9-2.883,1.362a63.659,63.659,0,0,1-6.134,2.7,19.58,19.58,0,0,1-6.4,1.264h-.138a17.525,17.525,0,0,1-14.09-7.744,9.247,9.247,0,0,1-.912-1.961,9.527,9.527,0,0,1-.505-2.981,5.92,5.92,0,0,1,.917-3.341,16.242,16.242,0,0,1,6.131-5.17,27.4,27.4,0,0,1,7.813-2.54,22.189,22.189,0,0,1,3.749-.287c1.327,0,2.657.084,3.973.173l2.681.186,1.608.113c-.007,0,4.022.2,6.023.287l1.341.06c2.107.093,4.221.183,6.328.343s4.2.381,6.286.737l.312.054a20.448,20.448,0,0,1,2.062.42,6.455,6.455,0,0,1,1.907.826,1.89,1.89,0,0,1,.5.5,2.669,2.669,0,0,1,.324.663A3.562,3.562,0,0,1,5991.037,2872.465Z" transform="translate(-5938.904 -2866.984)" fill="#0f2149"/>
    </g>
    <g id="Group_177212" data-name="Group 177212" transform="translate(4554.294 235.701)">
      <path id="Path_39238" data-name="Path 39238" d="M6781.8,844.632l-.049.069.058-.012Z" transform="translate(-6763.567 -792.954)" fill="#fbaf83"/>
      <path id="Path_39239" data-name="Path 39239" d="M6655,372.7a24.262,24.262,0,0,0-2.619-7.915,19.819,19.819,0,0,0-5.583-6.193,34.561,34.561,0,0,0-13.732-6.05,24.516,24.516,0,0,0-4.5-.438q-.731,0-1.449.052a24.292,24.292,0,0,0-9.682,3.06,83.893,83.893,0,0,0-8.937,5.822.06.06,0,0,0-.023.06l3.4,18.728a.058.058,0,0,0,.04.047.061.061,0,0,0,.059-.012,34.5,34.5,0,0,1,4.6-3.633,19.729,19.729,0,0,1,6.5-2.6,31.179,31.179,0,0,1,6.377-.651,25.562,25.562,0,0,1,4.639.4,14.114,14.114,0,0,1,3.026.891,6.842,6.842,0,0,1,2.215,1.464,4.94,4.94,0,0,1,1.331,3.514c0,2.444-1.4,5.31-3.893,7.7a16.774,16.774,0,0,1-1.765,1.474,31.531,31.531,0,0,1-9.761,4.33c-3.778,1.088-7.952,1.91-12.132,2.733a.064.064,0,0,0-.039.027.065.065,0,0,0-.009.047l.044.186c.427,1.828.852,3.66,1.282,5.562s.867,3.875,1.312,5.988c.452,2.149.915,4.444,1.384,6.809s.939,4.806,1.413,7.244a.059.059,0,0,0,.067.049l10.3-1.529a.061.061,0,0,0,.051-.069l-2.2-15.957-.058.012.049-.069.009.057c1.827-.379,3.656-.759,5.628-1.239,2-.483,4.136-1.071,6.571-1.862a40.773,40.773,0,0,0,7.677-3.222,17.016,17.016,0,0,0,6.326-5.867c1.961-3.265,2.692-7.63,2.692-11.934A41.768,41.768,0,0,0,6655,372.7Zm-46.429-11.563.025-.06.007.037C6608.589,361.122,6608.576,361.129,6608.566,361.138Zm3.321,18.634.082-.072.019.106Zm1.244,15.829.047-.074.015.062Zm5.414,25.674.057-.008c0,.018.009.039.012.057Zm10.3-1.531-.05.069-.009-.06Z" transform="translate(-6608.471 -352.104)" fill="#fbaf83"/>
    </g>
    <g id="Group_177213" data-name="Group 177213" transform="translate(4562.729 313.632)">
      <path id="Path_39240" data-name="Path 39240" d="M6703.556,1102.895a7.256,7.256,0,0,1-.938,3.814,4.922,4.922,0,0,1-1.3,1.358,9.275,9.275,0,0,1-1.656.94,8.827,8.827,0,0,1-3.555.871c-.05,0-.1,0-.149,0a6.836,6.836,0,0,1-.82-.072,8.108,8.108,0,0,1-3.056-1.142,6.662,6.662,0,0,1-2.256-2.26,7.75,7.75,0,0,1-.952-3.863,9.447,9.447,0,0,1,.339-2.515,5.857,5.857,0,0,1,1.825-2.731,11.14,11.14,0,0,1,2.865-1.815,7.4,7.4,0,0,1,1.9-.591c.1-.015.238-.027.357-.035l.215-.013a.011.011,0,0,1,.007,0s.112.008.273.024.369.037.561.066c.121.018.235.039.327.06a8.025,8.025,0,0,1,1.855.735,8.708,8.708,0,0,1,2.524,2.043,6.217,6.217,0,0,1,1.423,2.857A12.9,12.9,0,0,1,6703.556,1102.895Z" transform="translate(-6688.868 -1094.84)" fill="#fbaf83"/>
    </g>
    <g id="Group_177214" data-name="Group 177214" transform="translate(4533.01 309.782)">
      <path id="Path_39241" data-name="Path 39241" d="M6487.931,1240.859l-.034.06.042-.013Z" transform="translate(-6479.264 -1221.689)" fill="#3a6beb"/>
      <path id="Path_39242" data-name="Path 39242" d="M6425.613,1064.7a6.307,6.307,0,0,0-1.681-3.432,8.953,8.953,0,0,0-3.354-2.177c-.088-.034-.18-.068-.271-.1a17.468,17.468,0,0,0-5.715-.844,28.385,28.385,0,0,0-2.932.158,26.39,26.39,0,0,0-3.307.555c-.966.226-1.831.482-2.695.739a.052.052,0,0,0-.037.058l1.249,7.346a.052.052,0,0,0,.024.036.046.046,0,0,0,.042,0c.514-.174,1.029-.349,1.658-.518a21.642,21.642,0,0,1,2.348-.479,23.537,23.537,0,0,1,3.439-.3,7.1,7.1,0,0,1,2.416.33,2.816,2.816,0,0,1,.3.134,2.065,2.065,0,0,1,.209.13,1.807,1.807,0,0,1,.757,1.544,3.234,3.234,0,0,1-.609,1.807,4.545,4.545,0,0,1-1.583,1.33,17.519,17.519,0,0,1-2.181.946c-.789.3-1.623.609-2.477.922s-1.73.633-2.606.952a.051.051,0,0,0-.033.057l2.094,11.58a.05.05,0,0,0,.021.033.049.049,0,0,0,.039.008l4.948-.906a.051.051,0,0,0,.033-.021.053.053,0,0,0,.007-.038l-1.417-7.189-.043.013.034-.06.009.047a38.935,38.935,0,0,0,4.383-1.568,12.18,12.18,0,0,0,3.806-2.555,11.5,11.5,0,0,0,3.2-7.531A7.143,7.143,0,0,0,6425.613,1064.7Zm-19.925-5h0l.036-.057.007.044Zm1.216,7.249.057-.02.01.06Zm1.734,6.993.033-.058.009.044Zm2.067,11.48.052-.01.008.051Zm4.949-.906-.042.061-.01-.051Z" transform="translate(-6405.621 -1058.152)" fill="#3a6beb"/>
    </g>
    <g id="Group_177215" data-name="Group 177215" transform="translate(4539.594 340.296)">
      <path id="Path_39243" data-name="Path 39243" d="M6472.844,1350.891a.79.79,0,0,1-.027.208,2.062,2.062,0,0,1-.337.662,4.47,4.47,0,0,1-.5.552,3.986,3.986,0,0,1-.459.386,1.685,1.685,0,0,1-.54.26,1.5,1.5,0,0,1-.158.033,1.67,1.67,0,0,1-.223.016,3.076,3.076,0,0,1-1.42-.445,2.4,2.4,0,0,1-.408-.27,1.028,1.028,0,0,1-.3-.387,1.389,1.389,0,0,1-.1-.549,2.758,2.758,0,0,1,.292-1.192,2.816,2.816,0,0,1,.2-.3l.007-.009a5.194,5.194,0,0,1,.645-.479,3.252,3.252,0,0,1,1.063-.38,2.079,2.079,0,0,1,.282-.021c.048,0,.1,0,.146.007a1.489,1.489,0,0,1,.706.279,3.368,3.368,0,0,1,.569.518A1.861,1.861,0,0,1,6472.844,1350.891Z" transform="translate(-6468.369 -1348.972)" fill="#3a6beb"/>
    </g>
    <g id="Group_177216" data-name="Group 177216" transform="translate(4596.705 300.585)">
      <path id="Path_39244" data-name="Path 39244" d="M7109.8,1186.08l-.042.071c.017-.005.035-.01.052-.017Z" transform="translate(-7099.574 -1163.46)" fill="#fec241"/>
      <path id="Path_39245" data-name="Path 39245" d="M7036.27,978.227a7.42,7.42,0,0,0-1.982-4.049,10.577,10.577,0,0,0-3.959-2.569c-.1-.04-.211-.081-.317-.117a20.624,20.624,0,0,0-6.745-1,33.441,33.441,0,0,0-3.46.186,31.087,31.087,0,0,0-3.9.655c-1.142.267-2.162.569-3.182.871a.061.061,0,0,0-.044.069l1.475,8.668a.056.056,0,0,0,.028.042.052.052,0,0,0,.05.005c.608-.2,1.213-.411,1.954-.611a25.653,25.653,0,0,1,2.772-.566,27.8,27.8,0,0,1,4.058-.351,8.4,8.4,0,0,1,2.852.389,3.242,3.242,0,0,1,.348.158,2.447,2.447,0,0,1,.247.153,2.131,2.131,0,0,1,.893,1.821,3.819,3.819,0,0,1-.718,2.132,5.36,5.36,0,0,1-1.867,1.57,20.772,20.772,0,0,1-2.573,1.116c-.934.353-1.916.718-2.923,1.088s-2.041.747-3.074,1.123a.061.061,0,0,0-.04.067l2.472,13.664a.06.06,0,0,0,.07.049l5.839-1.069a.054.054,0,0,0,.038-.025.074.074,0,0,0,.01-.045l-1.672-8.485c-.017.007-.035.012-.052.017l.042-.071.01.054a45.351,45.351,0,0,0,5.171-1.848,14.36,14.36,0,0,0,4.491-3.015,13.573,13.573,0,0,0,3.773-8.882A8.281,8.281,0,0,0,7036.27,978.227Zm-23.51-5.9h0l.044-.067.008.052Zm1.436,8.553.067-.023.012.07Zm2.047,8.251.038-.069.01.052Zm2.438,13.546.061-.012.01.06Zm5.839-1.069-.049.072-.012-.06Z" transform="translate(-7012.68 -970.496)" fill="#fec241"/>
    </g>
    <g id="Group_177217" data-name="Group 177217" transform="translate(4603.723 334.853)">
      <path id="Path_39246" data-name="Path 39246" d="M7084.181,1298.036a3.992,3.992,0,0,0-.673-.611,1.725,1.725,0,0,0-.831-.329c-.06-.005-.119-.008-.179-.008a2.117,2.117,0,0,0-.326.025,3.84,3.84,0,0,0-1.254.448,5.946,5.946,0,0,0-.76.566l-.01.01a4.1,4.1,0,0,0-.237.356,3.107,3.107,0,0,0-.3.923,3.063,3.063,0,0,0-.042.484,1.671,1.671,0,0,0,.118.648,1.238,1.238,0,0,0,.356.455,2.973,2.973,0,0,0,.483.321,3.613,3.613,0,0,0,1.672.524,1.786,1.786,0,0,0,.267-.018,1.5,1.5,0,0,0,.187-.037,2.018,2.018,0,0,0,.636-.307,4.653,4.653,0,0,0,.541-.455,5.215,5.215,0,0,0,.59-.651,2.386,2.386,0,0,0,.4-.781.93.93,0,0,0,.032-.245A2.2,2.2,0,0,0,7084.181,1298.036Zm-3.942.18,0,0s0,0,0,0l0,0s0,0,0,0h0Z" transform="translate(-7079.567 -1297.088)" fill="#fec241"/>
    </g>
    <g id="Group_177218" data-name="Group 177218" transform="translate(4466.431 296.275)">
      <path id="Path_39247" data-name="Path 39247" d="M5783.986,937.4a16.6,16.6,0,0,1-.277,3.037,8.3,8.3,0,0,1-.393,1.466,3.905,3.905,0,0,1-.77,1.288,5.728,5.728,0,0,1-4.091,1.607,5.813,5.813,0,0,1-.665-.037l-.025,0a7.262,7.262,0,0,1-2.93-1.079,8.5,8.5,0,0,1-2.31-2.132,6.194,6.194,0,0,1-.819-1.57,10.4,10.4,0,0,1-.446-1.722,10.945,10.945,0,0,1-.18-1.9,6.943,6.943,0,0,1,.233-1.853,6.53,6.53,0,0,1,1.61-2.7,9.537,9.537,0,0,1,2.577-1.9,4.182,4.182,0,0,1,1.835-.482,2.853,2.853,0,0,1,.293.015l.067.008a6.425,6.425,0,0,1,2.147.675,9.654,9.654,0,0,1,1.878,1.269,6.889,6.889,0,0,1,1.328,1.481c.111.173.3.534.3.534s0,0,0,.005.161.39.225.593c.07.227.125.457.173.688a11.537,11.537,0,0,1,.2,1.573Q5783.986,936.826,5783.986,937.4Z" transform="translate(-5771.08 -929.416)" fill="#fbaf83"/>
    </g>
    <path id="Path_39248" data-name="Path 39248" d="M5907.541,517.769c-.065-.27-.131-.515-.2-.767h0c-.532-1.7-.892-3.324-2.029-4.333.881-2.51-2.6-4.083-4.489-2.518,1.476-.017,3.444.064,3.346,2.083-4.093.2-4.047,4.452.22,1.513a2.22,2.22,0,0,1,.483,1.044,16.393,16.393,0,0,1,.289,4.424Zm-4.768-3.844c-.423-.128.386-.542.5-.534.01-.01.231-.03.359-.062A1.962,1.962,0,0,1,5902.773,513.924Z" transform="translate(-1420.779 -257.307)" fill="#0f2149"/>
    <path id="Path_39249" data-name="Path 39249" d="M6258.506,618.167c.257-.1.49-.206.729-.309v0c1.606-.78,3.154-1.377,3.982-2.653,2.613.5,3.65-3.177,1.821-4.814.236,1.457.45,3.416-1.562,3.619-.811-4.017-5.006-3.339-1.463.443a2.225,2.225,0,0,1-.96.634,16.4,16.4,0,0,1-4.331.945Zm3.091-5.287c.063-.437.594.3.6.418.012.008.065.225.115.346A1.959,1.959,0,0,1,6261.6,612.88Z" transform="translate(-1739.335 -347.589)" fill="#0f2149"/>
    <path id="Path_39250" data-name="Path 39250" d="M5752.6,655.988a10.483,10.483,0,0,1-2.77-.6,1.426,1.426,0,0,1-.615-.405c2.266-2.419-.417-2.852-.936-.283-1.286-.13-1.149-1.383-1-2.314-1.17,1.047-.507,3.4,1.165,3.079a5.867,5.867,0,0,0,2.546,1.7h0c.153.065.3.13.466.2Zm-3.577-1.526c.032-.078.066-.216.074-.221.006-.075.345-.547.386-.268A1.252,1.252,0,0,1,5749.021,654.462Z" transform="translate(-1282.818 -385.174)" fill="#0f2149"/>
    <g id="Group_177219" data-name="Group 177219" transform="translate(4469.364 300.815)">
      <path id="Path_39251" data-name="Path 39251" d="M5801.216,979.77a.756.756,0,0,1-.659-1.125,4.2,4.2,0,0,1,2.538-2.153,3.988,3.988,0,0,1,1.69-.078,3.417,3.417,0,0,0-1.51-1.869,4.183,4.183,0,0,0-3.192-.028.755.755,0,0,1-.595-1.389,4.981,4.981,0,0,1,7.144,4.293.755.755,0,0,1-1.118.8,3.232,3.232,0,0,0-1.373-.35,2.5,2.5,0,0,0-2.265,1.515A.755.755,0,0,1,5801.216,979.77Z" transform="translate(-5799.033 -972.688)" fill="#da8d5e"/>
    </g>
    <circle id="Ellipse_825" data-name="Ellipse 825" cx="2.4" cy="2.4" r="2.4" transform="translate(4493.547 299.164)" fill="#0f2149"/>
    <circle id="Ellipse_826" data-name="Ellipse 826" cx="2.4" cy="2.4" r="2.4" transform="translate(4511.134 301.564)" fill="#0f2149"/>
    <path id="Path_39252" data-name="Path 39252" d="M6006.072,903.54s1.874-3.807,5.258-3.384l1.269,1.676s-5.167.621-5.8,2.645Z" transform="translate(-1514.984 -606.922)" fill="#0f2149"/>
    <path id="Path_39253" data-name="Path 39253" d="M6219.563,922.136s-1.275-4.047-4.685-4.142l-1.508,1.464s5.014,1.4,5.334,3.494Z" transform="translate(-1700.531 -622.917)" fill="#0f2149"/>
    <g id="Group_177220" data-name="Group 177220" transform="translate(4467.264 270.401)">
      <path id="Path_39254" data-name="Path 39254" d="M5779.651,695.431a10.043,10.043,0,0,1-.566-2.467,11.562,11.562,0,0,1,.007-2.569,9.741,9.741,0,0,1,.643-2.548,5.723,5.723,0,0,1,.277-.61,6.576,6.576,0,0,1,.326-.59,8.6,8.6,0,0,1,.8-1.095l.472-.492.516-.445c.176-.143.37-.262.554-.393a4.76,4.76,0,0,1,.582-.344l.3-.159c.1-.053.205-.09.307-.135.206-.085.411-.175.62-.247l.635-.189a5.975,5.975,0,0,1,.642-.141,11.4,11.4,0,0,1,5.067.221c-.419.064-.831.116-1.24.156l-1.213.19a16.458,16.458,0,0,0-2.316.582c-.377.109-.726.277-1.083.419-.174.08-.339.177-.51.259-.083.045-.172.081-.251.132l-.238.152a7.452,7.452,0,0,0-.91.653l-.416.37-.38.407a9.725,9.725,0,0,0-2.016,4.057A21.707,21.707,0,0,0,5779.651,695.431Z" transform="translate(-5779.018 -682.822)" fill="#1a3d70"/>
    </g>
    <g id="Group_177221" data-name="Group 177221" transform="translate(4486.762 262.74)">
      <path id="Path_39255" data-name="Path 39255" d="M5964.84,613.751a7.54,7.54,0,0,1,1.193-1.348,10.431,10.431,0,0,1,1.439-1.094,9.924,9.924,0,0,1,3.4-1.364l.463-.073c.155-.019.312-.033.468-.049s.314-.014.472-.019a3.934,3.934,0,0,1,.472.006,6.957,6.957,0,0,1,2.724.683c.139.071.274.148.408.224l.2.117.19.132c.125.091.251.176.37.272s.23.2.341.3c.055.052.113.1.164.156l.152.169c.1.117.2.227.29.346a12.472,12.472,0,0,0-3.25-.911,3.6,3.6,0,0,0-.4-.04c-.134-.007-.267-.022-.4-.027s-.267,0-.4,0-.266.009-.4.012l-.2.007-.2.017c-.132.013-.265.017-.4.041l-.4.05-.4.07a18.025,18.025,0,0,0-3.146.935C5966.961,612.77,5965.926,613.246,5964.84,613.751Z" transform="translate(-5964.84 -609.801)" fill="#1a3d70"/>
    </g>
    <g id="Group_177222" data-name="Group 177222" transform="translate(4518.541 275.716)">
      <path id="Path_39256" data-name="Path 39256" d="M6267.716,733.478a7.533,7.533,0,0,1,1.749.425,10.44,10.44,0,0,1,1.64.761,9.914,9.914,0,0,1,2.8,2.371l.281.375c.09.128.176.26.262.391s.159.271.237.408a3.968,3.968,0,0,1,.215.42,6.739,6.739,0,0,1,.571,1.8,6.827,6.827,0,0,1,.1.932c0,.156,0,.311-.008.466l-.01.231-.028.23c-.022.153-.038.3-.067.454s-.069.3-.109.444c-.021.073-.035.146-.061.218l-.079.214c-.057.141-.108.281-.17.418a12.452,12.452,0,0,0-.713-3.3,3.553,3.553,0,0,0-.152-.372c-.056-.122-.1-.245-.163-.365s-.125-.236-.182-.355-.132-.231-.2-.347l-.1-.172-.108-.168c-.073-.111-.139-.226-.222-.332l-.23-.327-.248-.317a17.975,17.975,0,0,0-2.3-2.344C6269.574,734.9,6268.67,734.2,6267.716,733.478Z" transform="translate(-6267.716 -733.478)" fill="#1a3d70"/>
    </g>
    <g id="Group_177223" data-name="Group 177223" transform="translate(4504.301 280.52)">
      <path id="Path_39257" data-name="Path 39257" d="M6132.242,779.255a18.385,18.385,0,0,0,1.074,2.84,7.323,7.323,0,0,0,1.609,2.217l.25.219.268.2c.087.07.186.122.278.185a3.091,3.091,0,0,0,.29.169c.192.12.407.2.613.3l.326.124a2.59,2.59,0,0,0,.334.117,20.465,20.465,0,0,0,2.967.638,6.306,6.306,0,0,1-3.2.526,6,6,0,0,1-.84-.139,5.882,5.882,0,0,1-.82-.279,5.225,5.225,0,0,1-1.48-.942,5.86,5.86,0,0,1-1.71-2.938,6.789,6.789,0,0,1-.195-1.635A5.372,5.372,0,0,1,6132.242,779.255Z" transform="translate(-6132.006 -779.255)" fill="#1a3d70"/>
    </g>
    <g id="Group_177224" data-name="Group 177224" transform="translate(4478.082 289.329)">
      <path id="Path_39258" data-name="Path 39258" d="M5882.119,863.213a18.378,18.378,0,0,0,2.647,1.486,7.322,7.322,0,0,0,2.657.664l.332.007.332-.021c.111,0,.221-.026.332-.037a3.135,3.135,0,0,0,.332-.057c.224-.032.439-.109.665-.161l.33-.115a2.641,2.641,0,0,0,.331-.125,20.425,20.425,0,0,0,2.683-1.417,6.3,6.3,0,0,1-2.113,2.46,6,6,0,0,1-.733.433,5.868,5.868,0,0,1-.808.313,5.22,5.22,0,0,1-1.739.229,5.857,5.857,0,0,1-3.2-1.152,6.8,6.8,0,0,1-1.2-1.128A5.378,5.378,0,0,1,5882.119,863.213Z" transform="translate(-5882.119 -863.213)" fill="#1a3d70"/>
    </g>
    <g id="Group_177225" data-name="Group 177225" transform="translate(4491.518 278.353)">
      <path id="Path_39259" data-name="Path 39259" d="M6010.168,764.5a18.359,18.359,0,0,0,3.021-.294,7.33,7.33,0,0,0,2.561-.974l.276-.185.26-.207c.09-.066.167-.147.251-.22a3.072,3.072,0,0,0,.24-.236c.166-.154.3-.341.454-.512l.205-.283a2.613,2.613,0,0,0,.2-.292,20.461,20.461,0,0,0,1.391-2.7,6.3,6.3,0,0,1-.328,3.227,5.977,5.977,0,0,1-.354.774,5.829,5.829,0,0,1-.483.719,5.227,5.227,0,0,1-1.3,1.182,5.855,5.855,0,0,1-3.283.884,6.8,6.8,0,0,1-1.629-.239A5.364,5.364,0,0,1,6010.168,764.5Z" transform="translate(-6010.168 -758.605)" fill="#1a3d70"/>
    </g>
    <path id="Path_39260" data-name="Path 39260" d="M5730.6,812.108s12.437-4.96,10.743-8.148-9.791,2.55-9.791,2.55l-4.633-.253Z" transform="translate(-1265.122 -519.986)" fill="#fbaf83"/>
    <path id="Path_39261" data-name="Path 39261" d="M5793.688,787.517c0,3.129-3.307,6.311-5.708,6.311s-.151-5.2-3.385-7.857c-2.418-1.985,2.343-4.119,4.744-4.119S5793.688,784.388,5793.688,787.517Z" transform="translate(-1316.15 -501.06)" fill="#0f2149"/>
    <path id="Path_39262" data-name="Path 39262" d="M5122.358,1083.148a8.823,8.823,0,0,1-2.674,1.074,10.594,10.594,0,0,1-2.883.278c-.245-.011-.491-.037-.737-.063s-.492-.074-.736-.135a6.055,6.055,0,0,1-1.434-.518,4.109,4.109,0,0,1-1.221-.958,2.7,2.7,0,0,1-.633-1.361,4.791,4.791,0,0,0,2.288,1.214,13.83,13.83,0,0,0,2.543.313c.874.044,1.767.044,2.677.054S5121.384,1083.061,5122.358,1083.148Z" transform="translate(-714.758 -769.236)" fill="#e39d2d"/>
    <path id="Path_39263" data-name="Path 39263" d="M5132.488,1104.656c.8-.329,1.537-.609,2.255-.91s1.4-.609,2.066-.954a18.222,18.222,0,0,0,1.926-1.157c.635-.428,1.233-.922,1.925-1.451a4.365,4.365,0,0,1-.4,1.229,5.514,5.514,0,0,1-.71,1.092,6.588,6.588,0,0,1-2.04,1.628,7.289,7.289,0,0,1-2.471.761,6.685,6.685,0,0,1-1.285.029A4.453,4.453,0,0,1,5132.488,1104.656Z" transform="translate(-733.06 -785.991)" fill="#e39d2d"/>
    <path id="Path_39264" data-name="Path 39264" d="M5293.7,835.331c-.786.322-1.568.638-2.34.942-1.244.49-2.461.952-3.623,1.367,1.916-8.735-7.319-19.716-11.6-24.24,1.79-.4,3.606-.772,5.423-1.12C5293.806,824.119,5294.542,831.653,5293.7,835.331Z" transform="translate(-861.636 -528.295)" fill="#e39d2d"/>
    <path id="Path_39265" data-name="Path 39265" d="M5419.86,812.078c.3-3.786-1.257-10.278-10.41-19.734-1.891.2-3.878.452-5.923.752,4.431,4.971,11.347,14.117,10.313,21.8Z" transform="translate(-975.661 -510.451)" fill="#e39d2d"/>
    <path id="Path_39266" data-name="Path 39266" d="M5749.2,1370.41a29.6,29.6,0,0,1-5.713,9.4c-2.9,2.913-7.857,3.373-14.043,1.8-4.714-1.2-9.809-8.573-11.968-12.017a23.508,23.508,0,0,0,3.521-1.576.061.061,0,0,1,.077.02c1.208,1.759,2.416,3.519,3.7,5.248a29.417,29.417,0,0,0,2.3,2.805,13.376,13.376,0,0,0,2.132,1.832,10.308,10.308,0,0,0,5.749,1.817c.184,0,.371-.005.559-.017a10.826,10.826,0,0,0,3.457-.818,11.837,11.837,0,0,0,3.114-1.884,14.664,14.664,0,0,0,2.428-2.691c.717-.992,1.363-2.053,2.013-3.119a.064.064,0,0,1,.03-.025,15.625,15.625,0,0,1,2.1-.66C5748.836,1370.487,5749.014,1370.449,5749.2,1370.41Z" transform="translate(-1256.672 -1025.717)" fill="#e39d2d"/>
    <path id="Path_39267" data-name="Path 39267" d="M6019.832,1554.682s10.987-7.867,21.061-6.527l2.176,3.187s-12.873.983-20.488,7.873Z" transform="translate(-1527.301 -1186.822)" fill="#e39d2d"/>
    <path id="Path_39268" data-name="Path 39268" d="M5480.968,1541.875c1-.432,1.953-.908,2.886-1.418s1.838-1.048,2.711-1.629a30.958,30.958,0,0,0,4.838-3.929l.544-.554c.177-.189.346-.385.521-.576s.344-.387.51-.586.339-.393.494-.6c.655-.8,1.237-1.667,1.813-2.539a41.716,41.716,0,0,0,2.906-5.67,18.5,18.5,0,0,1-1.751,6.309c-.259.488-.492.993-.791,1.461-.144.237-.28.479-.435.71l-.472.687a20.636,20.636,0,0,1-2.153,2.544,21.1,21.1,0,0,1-5.366,3.881,20.157,20.157,0,0,1-3.051,1.246c-.523.166-1.053.307-1.587.42A11.279,11.279,0,0,1,5480.968,1541.875Z" transform="translate(-1044.976 -1165.675)" fill="#e39d2d"/>
    <path id="Path_39269" data-name="Path 39269" d="M6272.392,1497.624a17.5,17.5,0,0,1,1.583,1.042c.513.37,1.01.762,1.5,1.167a34.373,34.373,0,0,1,2.773,2.6,38.437,38.437,0,0,1,4.69,5.992c.332.542.667,1.084.977,1.64.156.277.312.554.457.838s.3.562.439.847c.27.577.558,1.144.8,1.734.122.294.255.582.368.88l.337.892a28.525,28.525,0,0,1,1.667,7.393c-.889-2.363-1.807-4.661-2.883-6.881-.535-1.111-1.1-2.2-1.7-3.278-.309-.531-.6-1.074-.921-1.6-.307-.532-.635-1.051-.959-1.572a73.328,73.328,0,0,0-4.265-6.026q-1.143-1.459-2.356-2.874C6274.087,1499.473,6273.259,1498.541,6272.392,1497.624Z" transform="translate(-1753.361 -1141.73)" fill="#e39d2d"/>
    <g id="Group_177226" data-name="Group 177226" transform="translate(4501.877 353.204)">
      <path id="Path_39270" data-name="Path 39270" d="M6217.937,1474.634l-.927,2.167-24.216,56.662a.064.064,0,0,1-.06.039l-82.176,5.3-1.6-2.642a.061.061,0,0,1-.05-.029.062.062,0,0,1,0-.057l28.215-61.5a.059.059,0,0,1,.056-.035l79.161-2.547a.061.061,0,0,1,.049.029.055.055,0,0,1,.005.055Z" transform="translate(-6108.901 -1471.992)" fill="#80a0d8"/>
    </g>
    <path id="Path_39271" data-name="Path 39271" d="M6549.723,2013.326q-.3-.091-.6-.186c-1.86-.591-3.616-1.266-5.3-1.932-.149-.059-.3-.118-.449-.178,11.235-8.753-.052-25.178-.052-25.178s-9.131-9.693,5.132,1.8C6559.858,1996.842,6552.952,2008.87,6549.723,2013.326Z" transform="translate(-1993.289 -1575.311)" fill="#e39d2d"/>
    <path id="Path_39272" data-name="Path 39272" d="M6673.42,2056.521c-.943.055-1.882.082-2.81.082-1.5,0-2.968-.071-4.392-.213,9.217-8.949-1.23-24.154-1.23-24.154s-9.131-9.693,5.132,1.8C6679.411,2041.524,6676.546,2050.895,6673.42,2056.521Z" transform="translate(-2102.188 -1616.829)" fill="#e39d2d"/>
    <path id="Path_39273" data-name="Path 39273" d="M6459.152,1474.634l-.927,2.167-77.679,1.405-2.154-3.668,79.161-2.547a.062.062,0,0,1,.049.029.055.055,0,0,1,.005.055Z" transform="translate(-1848.239 -1118.788)" fill="#a2bdf4"/>
    <g id="Group_177227" data-name="Group 177227" transform="translate(4503.476 355.847)">
      <path id="Path_39274" data-name="Path 39274" d="M6231.628,1497.265l-23.6,61.388a.063.063,0,0,1-.059.039l-83.774,2.658a.06.06,0,0,1-.05-.029.062.062,0,0,1,0-.057l28.215-61.5a.058.058,0,0,1,.055-.035l79.161-2.547a.061.061,0,0,1,.048.029A.054.054,0,0,1,6231.628,1497.265Z" transform="translate(-6124.138 -1497.181)" fill="#d2dfff"/>
    </g>
    <path id="Path_39275" data-name="Path 39275" d="M6649.991,1687.225c0,3.8-7.615,10.878-13.779,9.428-4.014-.944-3.612-7.177-1.878-11.422,1.438-3.523,6.82-7.582,10.943-7.582S6649.991,1683.419,6649.991,1687.225Z" transform="translate(-2076.205 -1302.865)" fill="none" stroke="#f8f0e3" stroke-miterlimit="10" stroke-width="24"/>
    <g id="Group_177228" data-name="Group 177228" transform="translate(4439.022 423.115)">
      <path id="Path_39276" data-name="Path 39276" d="M5627.229,2206.76l-.017-.012c-9.776-7.885-18.6-16.172-27.5-23.347s-17.9-13.238-24.171-18.267-10.812-8.641-14.478-11.5-6.47-4.966-9.3-7.005a73.37,73.37,0,0,0-8.56-5.525,22.412,22.412,0,0,0-8.758-2.773l-.3-.017c-.263-.013-.525-.02-.789-.02-5.56,0-11.152,2.889-15.362,6.915a29.694,29.694,0,0,0-5.464,7.113,21.6,21.6,0,0,0-2.559,7.283,13.261,13.261,0,0,0-.123,1.795c0,3.685,1.6,6.785,3.947,10.714a56.167,56.167,0,0,0,5.508,7.838,78.935,78.935,0,0,0,10.994,10.5,188.4,188.4,0,0,0,18.856,13.167,183.453,183.453,0,0,0,22.778,12.052,145.507,145.507,0,0,0,22.232,7.474c7.232,1.841,14.33,3.193,21.426,4.544a.061.061,0,0,0,.051-.014c1.528-1.306,3.059-2.612,4.449-4.029a22.048,22.048,0,0,0,3.611-4.682c1.937-3.48,2.745-7.818,3.55-12.144A.065.065,0,0,0,5627.229,2206.76Zm-11.667,20.822c.007-.007.015-.012.022-.019l.03.005Zm11.575-20.74-.013-.01c0-.012,0-.024.006-.035l.022.059Z" transform="translate(-5509.848 -2138.296)" fill="#3a6beb"/>
    </g>
    <g id="Group_177229" data-name="Group 177229" transform="translate(4442.213 456.179)">
      <path id="Path_39277" data-name="Path 39277" d="M5596.949,2497.849a.749.749,0,0,1-.348-.085c-.1-.052-10.176-5.3-21.672-12.524-15.475-9.717-26.02-18.178-31.342-25.146a22.16,22.16,0,0,1-3.278-5.666.755.755,0,1,1,1.419-.519,20.679,20.679,0,0,0,3.06,5.268c12.452,16.3,52.111,37.039,52.511,37.246a.755.755,0,0,1-.349,1.426Z" transform="translate(-5540.262 -2453.413)" fill="#0f2149"/>
    </g>
    <g id="Group_177230" data-name="Group 177230" transform="translate(4438.742 460.478)">
      <path id="Path_39278" data-name="Path 39278" d="M5513.9,2498.3c-2.677,0-5.961-2.227-6.406-2.537a.756.756,0,0,1,.865-1.239h0c1.773,1.235,5.116,2.88,6.538,2.039a.755.755,0,0,1,.769,1.3A3.424,3.424,0,0,1,5513.9,2498.3Z" transform="translate(-5507.175 -2494.392)" fill="#0f2149"/>
    </g>
    <g id="Group_177231" data-name="Group 177231" transform="translate(4471.175 425.647)">
      <path id="Path_39279" data-name="Path 39279" d="M5901.415,2229.85a.753.753,0,0,1-.519-.206c-.149-.141-15.117-14.268-32.9-29.371-23.494-19.95-41.2-32.534-51.215-36.392a.755.755,0,1,1,.543-1.41c10.314,3.974,27.693,16.306,51.654,36.654,17.815,15.129,32.809,29.279,32.958,29.42a.756.756,0,0,1-.519,1.3Z" transform="translate(-5816.294 -2162.42)" fill="#0f2149"/>
    </g>
    <path id="Path_39280" data-name="Path 39280" d="M6091.7,2062.617s3.387-3.243,7.577-1.712,7.811,4.916,10.231,5.4-8.9,2.981-8.9,2.981l-8.9-3.3Z" transform="translate(-1591.626 -1645.542)" fill="#fbaf83"/>
    <path id="Path_39281" data-name="Path 39281" d="M6788.3,2049.5s10.233-6.107,18.292-4.657l-2.418,5.435Z" transform="translate(-2215.134 -1631.334)" fill="#fec241"/>
    <g id="Group_177232" data-name="Group 177232" transform="translate(4566.426 497.405)">
      <path id="Path_39282" data-name="Path 39282" d="M6725.963,2861a.757.757,0,0,1-.712-.5c-.134-.378-3.249-9.31,1.387-13.946a.755.755,0,1,1,1.068,1.068c-3.959,3.959-1.062,12.287-1.031,12.371a.755.755,0,0,1-.712,1.009Z" transform="translate(-6724.103 -2846.328)" fill="#1a3d70"/>
    </g>
    <g id="Group_177233" data-name="Group 177233" transform="translate(4575.39 496.237)">
      <path id="Path_39283" data-name="Path 39283" d="M6811.394,2849.865a.755.755,0,0,1-.711-.5c-.135-.378-3.25-9.311,1.386-13.947a.755.755,0,1,1,1.068,1.068c-3.959,3.959-1.061,12.287-1.031,12.371a.756.756,0,0,1-.712,1.009Z" transform="translate(-6809.534 -2835.195)" fill="#1a3d70"/>
    </g>
    <g id="Group_177234" data-name="Group 177234" transform="translate(4497.646 502.186)">
      <path id="Path_39284" data-name="Path 39284" d="M6076.934,2904.22l-.062,0a.756.756,0,0,1-.692-.814c.453-5.581-7.147-10.05-7.225-10.094a.755.755,0,0,1,.756-1.308c.348.2,8.506,4.99,7.975,11.525A.755.755,0,0,1,6076.934,2904.22Z" transform="translate(-6068.578 -2891.899)" fill="#1a3d70"/>
    </g>
    <g id="Group_177235" data-name="Group 177235" transform="translate(4358.8 515.67)">
      <path id="Path_39285" data-name="Path 39285" d="M4834.523,3020.408q-2.295.675-4.6,1.343h-81.36q-1.649-.647-3.292-1.343Z" transform="translate(-4745.272 -3020.408)" fill="#e5b5a3"/>
    </g>
    <g id="Group_177236" data-name="Group 177236" transform="translate(4346.891 467.854)">
      <rect id="Rectangle_162940" data-name="Rectangle 162940" width="1.343" height="28.737" transform="matrix(0.837, -0.547, 0.547, 0.837, 0, 0.734)" fill="#e5b5a3"/>
    </g>
    <g id="Group_177237" data-name="Group 177237" transform="translate(4397.106 491.914)">
      <rect id="Rectangle_162941" data-name="Rectangle 162941" width="1.343" height="28.737" transform="matrix(0.837, -0.547, 0.547, 0.837, 0, 0.734)" fill="#e5b5a3"/>
    </g>
    <g id="Group_177238" data-name="Group 177238" transform="translate(4607.192 467.713)">
      <rect id="Rectangle_162942" data-name="Rectangle 162942" width="1.343" height="28.737" transform="translate(0 0.734) rotate(-33.148)" fill="#e5b5a3"/>
    </g>
    <g id="Group_177239" data-name="Group 177239" transform="translate(4655.137 445.26)">
      <path id="Path_39286" data-name="Path 39286" d="M7571.177,2349.352l14.557,22.289.191.292-1.123.735-.671-1.027-14.555-22.289Z" transform="translate(-7569.576 -2349.352)" fill="#e5b5a3"/>
    </g>
    <g id="Group_177240" data-name="Group 177240" transform="translate(4656.733 491.163)">
      <path id="Path_39287" data-name="Path 39287" d="M7596.27,2802.693c-.43.166-.859.324-1.294.477l-9.479-14.515-.705-1.08.48-.314.645-.421.274.421.91,1.393Z" transform="translate(-7584.792 -2786.84)" fill="#e5b5a3"/>
    </g>
    <ellipse id="Ellipse_827" data-name="Ellipse 827" cx="10.762" cy="7.714" rx="10.762" ry="7.714" transform="translate(4403.738 249.348)" fill="#f8f0e3"/>
    <ellipse id="Ellipse_828" data-name="Ellipse 828" cx="11.41" cy="9.823" rx="11.41" ry="9.823" transform="translate(4639.652 379.637)" fill="#f8f0e3"/>
  </g>
</svg>
