<svg xmlns="http://www.w3.org/2000/svg" width="23.471" height="15.648" viewBox="0 0 23.471 15.648">
  <g id="Group_176930" data-name="Group 176930" transform="translate(0 0)">
    <path id="Path_38874" data-name="Path 38874" d="M14.714,4a2.934,2.934,0,0,1,2.934,2.934v9.78a2.934,2.934,0,0,1-2.934,2.934H4.934A2.934,2.934,0,0,1,2,16.714V6.934A2.934,2.934,0,0,1,4.934,4ZM24,4.348a.979.979,0,0,1,1.45.68l.014.168.006,13.255a.978.978,0,0,1-1.31.921l-.153-.071-4.4-2.516V6.863Z" transform="translate(-2 -4)" fill="#525863"/>
  </g>
</svg>
